<svg width="43" height="42" viewBox="0 0 43 42" fill="none" xmlns="http://www.w3.org/2000/svg">
<g id="map-pin">
<path id="Vector" d="M37.7446 17.5C37.7446 29.75 21.9946 40.25 21.9946 40.25C21.9946 40.25 6.24457 29.75 6.24457 17.5C6.24457 13.3228 7.90394 9.31677 10.8576 6.36307C13.8113 3.40937 17.8174 1.75 21.9946 1.75C26.1717 1.75 30.1778 3.40937 33.1315 6.36307C36.0852 9.31677 37.7446 13.3228 37.7446 17.5Z" stroke="#346448" stroke-width="2" stroke-linecap="round" stroke-linejoin="round"/>
<path id="Vector_2" d="M21.9946 22.75C24.8941 22.75 27.2446 20.3995 27.2446 17.5C27.2446 14.6005 24.8941 12.25 21.9946 12.25C19.0951 12.25 16.7446 14.6005 16.7446 17.5C16.7446 20.3995 19.0951 22.75 21.9946 22.75Z" stroke="#346448" stroke-width="2" stroke-linecap="round" stroke-linejoin="round"/>
</g>
</svg>
