<svg width="49" height="51" viewBox="0 0 49 51" fill="none" xmlns="http://www.w3.org/2000/svg">
<g id="Mountains">
<path id="Layer 2" d="M47.209 46.7313L37.3593 29.835C39.9304 27.9196 41.7293 25.0468 42.3989 21.7871C43.0685 18.5275 42.5598 15.1195 40.9737 12.24H44.0313C44.9034 12.263 45.7483 11.917 46.3802 11.2781C47.0121 10.6392 47.3793 9.75977 47.4009 8.83324C47.4226 7.9067 47.0969 7.00898 46.4956 6.33757C45.8943 5.66615 45.0666 5.27603 44.1945 5.25304C43.9714 5.24328 43.7479 5.25695 43.5273 5.29384C43.2869 4.64666 42.8688 4.09129 42.3274 3.69991C41.7859 3.30853 41.1462 3.09924 40.4914 3.09924C39.8365 3.09924 39.1968 3.30853 38.6553 3.69991C38.1139 4.09129 37.6958 4.64666 37.4553 5.29384C37.2347 5.25724 37.0113 5.24358 36.7881 5.25304C36.3583 5.27676 35.9371 5.39084 35.5491 5.58869C35.161 5.78654 34.8137 6.06421 34.5273 6.40564L34.4889 6.45154C33.1062 5.90771 31.6434 5.62968 30.1689 5.63044C27.8044 5.63214 25.4884 6.34344 23.4876 7.68243C21.4869 9.02142 19.8828 10.9336 18.8601 13.1988C18.427 12.3694 17.7749 11.6928 16.9843 11.2524C16.1936 10.8119 15.2989 10.627 14.4105 10.7202C13.5221 10.8135 12.6788 11.1809 11.9845 11.7772C11.2902 12.3735 10.7754 13.1726 10.5033 14.076C10.0988 13.9799 9.68382 13.9422 9.26975 13.9638C8.08096 14.0433 6.96732 14.6088 6.1624 15.5417C5.35748 16.4745 4.92382 17.7024 4.95238 18.9676C4.98094 20.2328 5.4695 21.4371 6.31558 22.3279C7.16167 23.2187 8.29955 23.7268 9.49055 23.7456H18.4761C19.3762 26.2015 20.9393 28.32 22.9689 29.835L20.8089 33.5376L16.5369 26.7291C16.4672 26.6299 16.3767 26.5494 16.2725 26.4939C16.1684 26.4384 16.0535 26.4095 15.9369 26.4095C15.8204 26.4095 15.7055 26.4384 15.6014 26.4939C15.4972 26.5494 15.4067 26.6299 15.3369 26.7291L2.79455 46.7109C2.72355 46.8268 2.68299 46.9607 2.67708 47.0988C2.67118 47.2369 2.70013 47.3741 2.76095 47.4963C2.82207 47.6184 2.91338 47.7204 3.02503 47.7914C3.13667 47.8624 3.26443 47.8997 3.39455 47.8992H46.5945C46.723 47.8997 46.8493 47.8636 46.9602 47.7947C47.0711 47.7258 47.1627 47.6267 47.2254 47.5075C47.2881 47.3883 47.3196 47.2535 47.3167 47.117C47.3138 46.9806 47.2766 46.8474 47.209 46.7313ZM28.8633 46.3692H15.0249L20.8569 36.3681L21.2697 35.6541L21.6873 34.9401L24.1881 30.6459L24.5673 29.9982L24.9513 29.3454L25.2201 28.8762L26.1801 29.9421L26.2809 30.0543C26.3734 30.1491 26.4879 30.216 26.6128 30.2483C26.7376 30.2805 26.8682 30.277 26.9913 30.2379C27.1133 30.2079 27.2258 30.1446 27.3177 30.0543L28.4793 28.7691L29.6409 30.0543C29.7804 30.1965 29.9661 30.2758 30.1593 30.2758C30.3526 30.2758 30.5383 30.1965 30.6777 30.0543L31.8393 28.7691L33.0009 30.0543C33.084 30.1434 33.1861 30.2099 33.2985 30.2481C33.3701 30.272 33.4444 30.2858 33.5194 30.2889C33.6161 30.2886 33.7118 30.2676 33.8009 30.2274C33.8899 30.1871 33.9705 30.1282 34.0377 30.0543L34.1337 29.9421L35.0938 28.8762L35.3673 29.3454L35.7514 29.9982L36.1258 30.6459L45.2938 46.3692H28.8633ZM12.1785 34.5219L12.9417 35.3685C13.0808 35.5134 13.2678 35.5945 13.4625 35.5945C13.6573 35.5945 13.8443 35.5134 13.9833 35.3685L14.6985 34.578L15.4185 35.3685C15.5568 35.5131 15.743 35.5941 15.9369 35.5941C16.1309 35.5941 16.3171 35.5131 16.4553 35.3685L17.1753 34.578L17.8905 35.3685C17.9573 35.4431 18.0378 35.5024 18.1269 35.5428C18.2161 35.5831 18.312 35.6037 18.4089 35.6031C18.5066 35.6038 18.6033 35.5833 18.6932 35.543C18.7832 35.5026 18.8645 35.4433 18.9321 35.3685L19.7145 34.5219L19.9977 34.9707L13.3305 46.3692H4.73855L12.1785 34.5219ZM15.9369 28.5294L18.8793 33.2163L18.3993 33.7263L17.6841 32.9307C17.6167 32.8571 17.5361 32.7984 17.4471 32.7581C17.3581 32.7178 17.2625 32.6968 17.1657 32.6961C16.969 32.6978 16.7809 32.7821 16.6425 32.9307L15.9273 33.7263L15.2073 32.9307C15.1401 32.8568 15.0595 32.798 14.9705 32.7577C14.8814 32.7174 14.7857 32.6965 14.6889 32.6961C14.5922 32.6965 14.4964 32.7174 14.4074 32.7577C14.3184 32.798 14.2378 32.8568 14.1705 32.9307L13.4745 33.7365L12.9945 33.2265L15.9369 28.5294ZM9.49055 22.2156C8.67769 22.1939 7.90382 21.8409 7.32911 21.2298C6.7544 20.6186 6.42287 19.7961 6.40313 18.9324C6.3834 18.0687 6.67697 17.23 7.22308 16.59C7.7692 15.9499 8.52604 15.5574 9.33695 15.4938H9.49535C9.92478 15.4931 10.3497 15.5869 10.7433 15.7692C10.8465 15.8145 10.958 15.8343 11.0694 15.8272C11.1807 15.8202 11.2892 15.7864 11.3865 15.7284C11.4833 15.6702 11.5659 15.5886 11.6276 15.4903C11.6893 15.392 11.7284 15.2797 11.7417 15.1623C11.8363 14.3539 12.2056 13.6101 12.7802 13.0708C13.3548 12.5315 14.0951 12.2338 14.8617 12.2338C15.6284 12.2338 16.3687 12.5315 16.9433 13.0708C17.5179 13.6101 17.8872 14.3539 17.9817 15.1623C17.9968 15.2607 18.0277 15.3556 18.0729 15.4428C18.137 15.563 18.2308 15.6622 18.3442 15.7297C18.4576 15.7971 18.5863 15.8302 18.7161 15.8253C18.8067 15.8249 18.8964 15.8059 18.9801 15.7692C19.1587 15.6896 19.3434 15.6264 19.5321 15.5805C19.8118 15.5098 20.0995 15.4823 20.3865 15.4989C21.2255 15.5213 22.0217 15.8968 22.6001 16.5428C23.1784 17.1889 23.4916 18.0526 23.4705 18.944C23.4495 19.8354 23.0961 20.6813 22.4881 21.2959C21.88 21.9104 21.0671 22.2431 20.2281 22.2207H9.49055V22.2156ZM20.1993 23.7456H20.2377C21.4196 23.7484 22.5569 23.2671 23.4133 22.4018C24.2698 21.5365 24.7793 20.3538 24.8361 19.0995C24.8836 17.8061 24.4525 16.5444 23.6352 15.5845C22.8179 14.6246 21.6793 14.0428 20.4633 13.9638C20.3433 13.9638 20.2281 13.9638 20.1129 13.9638C21.2694 11.32 23.3089 9.22687 25.8358 8.09039C28.3626 6.95392 31.1966 6.85514 33.7881 7.81324C34.0185 7.89994 34.2682 7.98664 34.465 8.08354C34.6618 8.18044 34.9161 8.30284 35.1369 8.42014C36.2258 9.00786 37.2166 9.78144 38.0697 10.71C38.3001 10.9548 38.5161 11.22 38.7225 11.475C38.9289 11.73 39.0922 11.985 39.2649 12.24C40.9354 14.7841 41.5926 17.9261 41.0937 20.9825C40.5948 24.0389 38.9801 26.7622 36.6009 28.56L30.7545 18.5436C30.6905 18.433 30.6009 18.3415 30.4942 18.2782C30.3875 18.2148 30.2672 18.1815 30.1449 18.1815C30.0221 18.1821 29.9014 18.2155 29.794 18.2788C29.6866 18.3421 29.596 18.4332 29.5305 18.5436L23.7273 28.56C22.1196 27.3391 20.8458 25.6865 20.0361 23.7711L20.1993 23.7456ZM36.9465 6.78304C37.1974 6.78231 37.4456 6.83611 37.6761 6.94114C37.7779 6.98821 37.8885 7.00949 37.9993 7.00329C38.1101 6.9971 38.218 6.9636 38.3145 6.90544C38.411 6.84627 38.4936 6.76455 38.556 6.66648C38.6183 6.5684 38.6589 6.45653 38.6745 6.33934C38.7303 5.86987 38.9454 5.43816 39.2795 5.12522C39.6135 4.81227 40.0436 4.6396 40.4889 4.6396C40.9343 4.6396 41.3644 4.81227 41.6984 5.12522C42.0325 5.43816 42.2476 5.86987 42.3033 6.33934C42.319 6.45653 42.3596 6.5684 42.4219 6.66648C42.4843 6.76455 42.5669 6.84627 42.6633 6.90544C42.7606 6.96404 42.8693 6.99777 42.981 7.00397C43.0926 7.01016 43.2041 6.98865 43.3065 6.94114C43.5577 6.83113 43.8287 6.78147 44.1 6.79571C44.3713 6.80996 44.6364 6.88776 44.8761 7.02355C45.1158 7.15934 45.3244 7.34975 45.4868 7.58117C45.6491 7.81258 45.7614 8.07928 45.8154 8.36216C45.8694 8.64504 45.864 8.93712 45.7993 9.21749C45.7347 9.49786 45.6126 9.75959 45.4417 9.98394C45.2707 10.2083 45.0552 10.3897 44.8106 10.5153C44.5659 10.6408 44.2982 10.7073 44.0266 10.71H39.985C38.8831 9.22939 37.4993 8.01282 35.9241 7.14004C36.1975 6.9333 36.5203 6.81306 36.8553 6.79324L36.9465 6.78304ZM30.1641 20.4L34.3209 27.54L33.5241 28.4223L32.3625 27.1422C32.2962 27.0667 32.2159 27.0065 32.1268 26.9652C32.0376 26.924 31.9414 26.9027 31.8441 26.9025C31.7474 26.9029 31.6516 26.9238 31.5626 26.9641C31.4736 27.0044 31.393 27.0632 31.3257 27.1371L30.1641 28.4223L29.0025 27.1422C28.9362 27.0667 28.8559 27.0065 28.7668 26.9652C28.6776 26.924 28.5814 26.9027 28.4841 26.9025C28.3874 26.9029 28.2916 26.9238 28.2026 26.9641C28.1136 27.0044 28.033 27.0632 27.9657 27.1371L26.8041 28.4223L26.0025 27.54L30.1641 20.4Z" fill="#346448"/>
</g>
</svg>
