<svg width="85" height="41" viewBox="0 0 85 41" fill="none" xmlns="http://www.w3.org/2000/svg">
<path id="Vector" d="M83.4619 28.298C82.3812 25.8863 80.2197 24.9216 78.1784 25.2431C77.578 24.2784 76.6173 23.9569 75.6567 23.7961C75.7768 21.0627 73.3752 18.1686 71.574 20.098C71.3338 20.4196 71.8141 20.7412 71.8141 20.2588C73.4952 18.8118 75.2965 21.5451 75.1764 23.6353C74.9362 23.4745 74.8161 23.9569 75.0563 23.9569C76.0169 24.1176 77.0976 24.1176 77.8181 25.0824C77.2177 25.2431 76.6173 25.5647 76.137 26.0471C75.8969 25.8863 75.6567 25.8863 75.2965 25.8863C75.5366 22.1882 71.6941 21.0627 69.2924 22.1882C69.2924 21.5451 68.9322 20.7412 68.4519 20.2588C68.8121 19.6157 69.1724 18.9725 69.7728 18.8118C69.8929 19.1333 70.2531 19.1333 70.0129 18.8118C70.7334 19.2941 71.2137 20.4196 71.2137 21.5451C71.2137 21.7059 71.3338 21.8667 71.3338 21.8667C71.8141 21.8667 71.0937 19.7765 70.9736 19.6157C70.8535 19.2941 70.0129 18.3294 69.6527 18.651C68.9322 18.651 68.4519 19.4549 67.9716 20.098C67.7314 19.9373 67.4913 19.7765 67.2511 19.6157C67.9716 16.4 66.2905 12.5412 63.7688 14.6314C63.1684 13.5059 61.9676 12.2196 60.8868 12.5412C60.5266 12.5412 60.0463 12.8627 59.686 13.1843C59.4459 12.702 59.0856 12.3804 58.7254 12.0588C59.0856 9.00392 56.8041 6.59216 55.2431 9.32549C54.5226 6.91373 51.6407 6.59216 50.4399 8.36078C50.3198 7.55686 50.3198 6.75294 50.0796 5.94902C50.68 5.62745 51.2804 6.43137 51.7608 6.91373C52.121 6.75294 51.7608 6.27059 51.6407 6.1098C51.1604 5.46667 50.4399 5.30588 49.8395 5.62745C48.9989 3.0549 47.3178 1.92941 45.5166 3.53726C44.676 2.89412 43.5953 2.73333 42.6347 3.37647C42.6347 1.92941 42.0343 0 40.7134 0H40.5933C38.672 0 36.9909 2.41176 36.1504 4.50196C34.7094 4.01961 33.2684 5.30588 32.3078 6.43137C30.1464 9.48627 32.1877 13.1843 35.0696 11.0941C34.109 13.3451 33.2684 17.2039 35.55 18.3294C35.9102 18.4902 36.1504 17.8471 35.7901 17.5255C33.6287 16.7216 35.0696 10.2902 36.8708 10.1294C37.3512 10.451 37.9516 10.451 38.4319 10.2902C37.5913 12.2196 36.9909 15.4353 38.4319 17.0431C36.1504 17.6863 33.6287 20.4196 33.8688 23.7961C33.1484 25.7255 32.3078 26.851 30.9869 28.6196C31.2271 27.1725 32.0676 25.8863 32.9082 24.9216C32.9082 23.4745 30.5066 28.1373 30.7468 28.7804C30.2664 27.6549 30.8668 24.4392 32.1877 24.1176C32.3078 24.2784 32.4279 24.1176 32.4279 23.9569C32.7881 23.7961 33.7488 23.9569 33.7488 23.3137C33.3885 22.5098 31.7074 23.6353 30.9869 23.1529C29.1857 22.6706 29.4259 20.4196 30.6267 19.1333C31.5873 18.1686 32.548 17.0431 33.7488 16.8824C33.9889 17.0431 34.109 16.8824 34.109 16.7216C33.8688 15.7569 31.3472 17.5255 30.7468 18.1686C27.9849 16.4 30.2664 15.4353 31.7074 14.149C32.1877 14.3098 32.3078 12.8627 32.548 12.5412C33.1484 12.3804 33.6287 12.3804 34.109 12.5412C34.9496 11.898 32.9082 11.898 32.668 12.0588C32.668 11.898 32.668 11.7373 32.548 11.5765C32.0676 11.7373 32.0676 13.0235 31.7074 13.5059C30.1464 14.3098 28.3452 15.9176 26.544 14.9529C24.9829 14.3098 25.5833 12.702 26.544 11.5765C27.8648 10.451 29.666 8.84314 31.2271 9.48627C31.5873 9.48627 31.3472 9.00392 31.107 9.00392C29.546 8.36078 26.544 10.1294 25.4632 11.898C25.103 11.5765 24.6227 11.2549 24.1424 11.0941C22.2211 10.451 19.6994 15.1137 20.2998 17.3647C20.4199 17.3647 20.54 17.3647 20.54 17.2039C20.66 14.7922 21.7408 12.0588 23.542 11.4157C24.0223 11.7373 24.6227 11.898 25.103 12.5412C24.7428 13.3451 24.7428 13.9882 24.9829 14.6314C23.9022 14.4706 22.7014 14.4706 21.9809 15.5961C21.8608 15.4353 21.6207 15.4353 21.6207 15.5961C21.5006 15.5961 21.1404 16.0784 21.5006 16.0784C21.1404 18.0078 22.2211 20.7412 23.542 21.5451L23.4219 21.7059C19.099 27.8157 11.654 19.2941 20.9002 18.0078C20.9002 18.1686 21.0203 18.1686 21.1404 18.1686C21.6207 16.7216 17.538 18.1686 17.0576 18.9725C16.6974 18.3294 16.097 17.5255 15.3765 17.5255C15.0163 17.2039 14.1757 18.1686 14.0556 18.4902C13.9356 18.651 13.2151 20.7412 13.6954 20.7412C13.8155 20.7412 13.8155 20.5804 13.8155 20.4196C13.9356 19.2941 14.2958 18.3294 15.0163 17.6863C14.7761 18.0078 15.1364 18.0078 15.2564 17.6863C15.8568 17.8471 16.2171 18.4902 16.5773 19.1333C16.097 19.6157 15.7368 20.4196 15.7368 21.0627C13.3352 19.9373 9.49259 21.0627 9.73275 24.7608C9.49259 24.7608 9.13235 24.9216 8.89219 24.9216C8.41187 24.4392 7.81147 24.1176 7.21107 23.9569C7.93155 22.9922 9.01227 22.8314 9.97291 22.8314C10.093 22.8314 10.093 22.6706 10.093 22.6706C9.13235 22.1882 7.57131 22.8314 6.97091 23.9569C2.04763 22.8314 0.00626689 31.0314 1.44723 29.2627C2.52795 25.7255 5.52995 23.9569 8.17171 25.4039C7.69139 25.8863 7.33115 26.5294 7.09099 27.3333C5.65003 27.6549 4.08899 28.1373 3.12835 29.5843C2.76811 29.9059 2.40787 30.549 2.88819 30.7098C3.00827 30.7098 3.12835 30.549 3.12835 30.3882C3.96891 28.9412 5.52995 28.7804 6.85083 28.6196C6.85083 29.4235 6.85083 31.0314 7.57131 31.3529C8.05163 31.9961 9.37251 32.6392 9.97291 32.3176C9.49259 31.8353 8.29179 31.9961 7.81147 31.1922C8.17171 30.7098 7.57131 29.9059 7.57131 29.4235C7.33115 27.9765 7.93155 26.5294 8.77211 25.7255C9.01227 25.7255 9.13235 25.7255 9.25243 25.4039C9.49259 25.2431 9.61267 25.2431 9.85283 25.2431C9.97291 25.5647 9.97291 25.8863 10.2131 26.3686C10.093 26.5294 10.2131 27.0118 10.3331 26.6902H10.4532C11.534 27.9765 13.2151 28.1373 14.536 27.8157C14.4159 27.9765 14.2958 28.1373 14.2958 28.298C14.2958 28.1373 14.2958 28.1373 14.1757 28.1373C14.0556 27.8157 13.8155 27.9765 13.8155 28.298C13.4552 30.3882 11.7741 31.6745 10.3331 32.1569C10.2131 32.1569 10.093 32.3176 10.093 32.6392C11.1737 33.4431 13.5753 31.0314 13.9356 29.4235C13.5753 31.9961 14.8962 34.5686 16.6974 35.3726C16.9376 35.5333 17.0576 35.2118 17.0576 35.051C17.8982 34.8902 18.7388 34.0863 19.099 33.2824C19.5793 33.2824 20.0596 33.6039 20.4199 33.9255C20.4199 34.0863 20.54 34.4078 20.7801 34.2471C21.3805 34.8902 21.2604 36.0157 21.5006 36.9804C22.9416 37.6235 21.5006 33.2824 20.66 33.1216C20.54 32.3176 20.4199 31.5137 21.0203 31.0314C21.1404 31.0314 21.2604 31.0314 21.2604 31.0314C21.6207 31.0314 22.101 31.0314 22.4612 30.8706C22.4612 30.7098 22.4612 30.7098 22.4612 30.549C22.7014 30.3882 22.9416 30.2274 23.1817 30.2274C26.0636 31.3529 24.2624 35.6941 25.2231 35.3726C24.6227 35.8549 24.2624 36.8196 24.8628 37.302C25.103 37.302 25.5833 36.498 25.103 36.6588C26.1837 34.8902 27.9849 35.051 29.4259 34.5686C29.4259 36.1765 31.2271 36.9804 32.548 36.498C33.2684 37.1412 33.1484 38.2667 33.2684 39.2314C33.2684 39.5529 33.5086 39.7137 33.6287 39.5529C34.109 39.3922 33.8688 38.4275 33.8688 37.9451C34.7094 36.498 36.3905 36.1765 37.2311 37.7843C37.2311 37.9451 37.2311 37.9451 37.3512 37.9451C37.7114 38.5882 37.9516 39.3922 38.0716 40.0353C38.0716 40.3569 38.3118 40.3569 38.552 40.3569C39.2724 39.7137 38.0716 37.4627 37.7114 36.9804C37.7114 36.1765 37.7114 35.2118 38.1917 34.7294C38.1917 34.5686 38.4319 34.4078 38.552 34.5686C39.2724 34.2471 39.9929 33.6039 40.4732 32.8C40.4732 34.4078 41.1937 36.0157 42.1544 36.8196C42.1544 36.9804 42.1544 37.1412 42.1544 37.1412C42.2744 37.9451 42.3945 38.9098 42.1544 39.5529C41.1937 41.9647 43.7154 40.6784 42.6347 37.1412C43.3552 37.6235 44.1957 37.6235 45.0363 37.6235C45.1564 37.7843 45.3965 37.6235 45.5166 37.6235C45.1564 38.4275 44.556 39.8745 45.1564 40.6784C45.6367 40.6784 44.9162 38.749 45.7568 37.6235C45.8768 37.6235 45.8768 37.4627 45.8768 37.4627C46.3572 36.9804 46.7174 36.3373 46.9576 35.6941C47.9182 34.4078 50.68 34.2471 50.68 36.6588C50.8001 38.1059 48.8788 40.5176 49.2391 41C50.1997 41 50.68 38.749 51.1604 37.7843C51.1604 38.5882 54.6427 40.5176 53.562 39.0706C52.7214 38.9098 51.6407 38.4275 51.2804 37.302C51.4005 36.498 51.2804 35.5333 50.68 34.8902C50.68 34.7294 50.68 34.5686 50.56 34.5686C51.0403 33.1216 52.4812 32.8 53.562 32.9608C53.682 33.1216 53.8021 33.1216 53.8021 33.1216C55.123 33.7647 55.9636 35.6941 55.9636 37.6235C55.9636 37.7843 56.0836 37.9451 56.2037 37.9451C56.564 37.9451 56.4439 37.1412 56.4439 36.8196C56.3238 35.051 55.3632 33.1216 54.0423 32.6392C54.4025 31.8353 55.123 31.0314 55.8435 30.549C57.0443 31.6745 59.2057 31.8353 60.0463 29.9059C60.2864 30.3882 60.5266 30.7098 60.7668 31.0314C58.6053 31.1922 56.564 35.5333 58.0049 37.9451C58.2451 37.9451 58.3652 37.7843 58.3652 37.4627C57.7648 34.8902 59.2057 31.8353 61.127 31.5137C61.2471 31.5137 61.2471 31.6745 61.3672 31.6745C61.4873 31.6745 61.4872 31.8353 61.6073 31.8353C61.6073 31.8353 61.6073 31.8353 61.7274 31.8353C61.8475 31.8353 61.9676 31.9961 61.9676 31.9961C61.8475 34.4078 59.0857 35.6941 58.8455 37.9451C59.9262 36.0157 61.8475 34.7294 62.3278 32.1569H62.4479H62.568C62.688 32.1569 62.8081 32.1569 63.0483 32.1569C64.3692 34.0863 61.7274 36.1765 62.4479 36.6588C63.2885 36.6588 64.2491 33.1216 63.4085 32.1569C63.5286 32.1569 63.6487 32.1569 63.8888 32.1569C64.129 32.1569 64.2491 32.1569 64.4893 32.1569C64.6093 32.1569 64.6093 32.1569 64.7294 32.1569C64.9696 31.9961 65.2097 31.8353 65.3298 31.6745C65.4499 32.1569 65.69 32.6392 65.9302 33.1216C65.3298 32.8 63.4085 35.3725 64.0089 35.8549C64.6093 35.051 64.9696 33.2824 66.1704 33.6039C66.6507 34.2471 68.0917 35.5333 68.692 34.7294C68.4519 33.6039 66.2905 34.4078 65.69 31.5137C66.4105 30.8706 66.4105 29.2627 66.0503 28.1373C66.4105 28.1373 66.4105 26.851 66.8908 27.0118C66.7708 27.1725 66.8908 27.6549 67.0109 27.6549C67.8515 29.9059 66.7708 33.4431 69.2924 33.4431C69.5326 33.6039 69.6527 33.1216 69.4125 32.9608C69.2924 32.9608 69.1724 32.9608 69.0523 32.8C68.0917 31.6745 68.3318 29.9059 68.2117 28.4588C68.572 28.9412 69.1724 28.9412 69.6527 29.2627C71.4539 30.2275 70.4933 34.2471 69.1724 35.3726C69.5326 35.2118 69.8928 35.051 70.133 34.8902C70.7334 33.7647 71.0937 32.3176 70.8535 30.8706C71.2137 32.1569 72.1744 33.1216 73.135 33.7647C73.4952 33.6039 73.8555 33.6039 74.0956 33.4431C72.7748 32.8 71.4539 31.6745 71.0937 29.7451C71.0937 29.4235 70.8535 29.2627 70.7334 29.5843L70.6133 29.7451C70.4932 29.5843 70.4933 29.4235 70.3732 29.2627C71.6941 29.5843 73.3752 29.4235 74.4559 28.1373C74.576 27.9765 74.6961 27.8157 74.8161 27.6549C74.9362 27.3333 75.0563 27.0118 75.0563 26.6902C75.1764 26.6902 75.2964 26.6902 75.4165 26.851C75.5366 26.851 75.5366 26.851 75.6567 26.851C75.8969 27.1726 76.4973 27.3333 76.4973 27.8157C77.0977 28.6196 77.3378 29.7451 77.2177 30.8706C77.2177 31.3529 76.7374 32.1569 76.9776 32.6392C77.2177 32.6392 77.3378 32.6392 77.578 32.4784C77.9382 31.6745 78.0583 30.8706 78.0583 30.0667C79.2591 30.0667 80.7001 30.2275 81.5406 31.5137C81.6607 31.5137 81.7808 31.5137 82.0209 31.5137C81.0603 29.7451 79.3792 29.102 77.8181 28.9412C77.578 28.1373 77.2177 27.4941 76.7374 27.0118C79.3792 25.5647 82.3812 27.3333 83.4619 30.8706C83.3418 31.0314 83.582 31.1922 83.7021 31.1922C84.5426 30.549 83.7021 28.7804 83.4619 28.298ZM4.92955 28.4588C5.52995 28.1373 6.25043 27.8157 6.85083 27.6549C6.85083 27.8157 6.73075 27.9765 6.73075 28.1373C6.25043 28.298 5.52995 28.298 4.92955 28.4588ZM68.692 23.9569C68.8121 23.9569 68.8121 23.9569 68.692 23.9569C70.3732 24.4392 72.2944 24.2784 73.6153 25.7255C72.1744 24.6 70.3732 24.7608 68.692 23.9569ZM69.4125 22.6706C71.4539 22.1882 75.1764 22.9922 74.576 26.5294C73.4953 23.6353 71.0937 24.2784 69.0523 23.4745C69.1724 23.3137 69.1724 22.9922 69.2924 22.8314C69.2924 22.8314 69.4125 22.8314 69.4125 22.6706ZM67.0109 17.8471C67.0109 18.3294 67.0109 18.8118 66.8908 19.2941C66.5306 19.1333 66.1704 18.9725 65.8101 18.8118C65.8101 18.8118 65.8101 18.8118 65.8101 18.651C66.2905 18.3294 66.0503 14.7922 65.4499 14.3098C66.4105 14.6314 67.131 16.0784 67.0109 17.8471ZM60.0463 13.6667C60.5266 13.1843 61.127 13.0235 61.6073 12.5412C62.4479 12.702 63.1684 13.6667 63.7688 14.6314C63.7688 14.7922 63.7688 14.7922 63.8888 14.7922C64.3692 15.9176 64.6093 17.0431 64.7294 18.3294C65.69 19.4549 64.4892 14.9529 64.129 14.6314C64.6093 14.3098 64.9696 14.3098 65.3298 14.3098C65.2097 14.4706 65.2097 14.6314 65.3298 14.6314C65.57 14.9529 65.69 15.4353 65.69 15.7569C65.3298 16.0784 65.69 17.8471 65.57 18.651C65.2097 18.4902 63.5286 18.3294 64.0089 19.1333C64.129 19.1333 64.2491 19.1333 64.2491 18.9725C73.4953 20.2588 66.0503 28.7804 61.7274 22.6706C61.7274 22.6706 61.7274 22.5098 61.6073 22.5098C62.9282 21.7059 63.7688 19.4549 63.7688 17.5255C63.6487 17.3647 63.6487 17.2039 63.5286 17.0431V16.8824C63.4085 16.7216 63.4085 16.5608 63.4085 16.5608C63.4085 16.5608 63.2884 16.5608 63.2884 16.7216C62.568 15.5961 61.2471 15.5961 60.2864 15.7569C60.2864 15.1137 60.2864 14.4706 60.0463 13.6667ZM59.2057 22.349C60.5266 21.7059 60.7668 19.6157 61.0069 18.0078C61.6073 17.5255 62.3278 17.2039 63.0483 16.8824C63.0483 17.0431 63.1684 17.0431 63.2884 16.8824C63.8888 20.2588 61.4872 22.8314 59.2057 22.349ZM58.2451 21.8667C57.6447 21.2235 57.2844 20.098 57.4045 18.9725C57.6447 19.1333 57.5246 18.8118 57.5246 18.651C58.7254 16.5608 61.0069 15.4353 62.8081 16.7216C62.2077 16.8824 61.4872 17.3647 60.8868 17.8471C60.7668 17.6863 60.6467 18.0078 60.5266 18.1686C59.2057 19.1333 59.8061 21.5451 58.4852 22.349C58.4852 22.1882 58.3652 22.0275 58.2451 21.8667ZM54.0423 17.2039C53.9222 16.5608 53.8021 15.9176 53.9222 15.2745C54.2824 15.7569 54.7628 16.0784 55.2431 16.4C55.2431 16.4 55.2431 16.4 55.3632 16.5608C56.2037 16.8824 57.0443 17.3647 58.0049 17.2039C57.5246 17.6863 57.1644 18.3294 57.4045 18.4902C57.2844 18.9725 57.1644 19.6157 57.2844 20.098C56.9242 20.2588 56.3238 19.9373 55.9636 20.2588C55.6033 19.1333 54.8829 18.0078 54.0423 17.2039ZM50.8001 16.5608C50.8001 16.0784 50.68 15.5961 50.4399 15.2745C50.68 15.2745 51.1604 14.9529 51.4005 14.7922C51.7608 14.7922 51.8808 14.4706 51.8808 13.9882C52.2411 14.3098 52.7214 14.4706 53.2017 14.4706C53.3218 14.6314 53.3218 14.9529 53.4419 15.1137C53.2017 15.5961 53.3218 16.4 53.3218 17.0431C52.6013 16.4 51.6407 16.0784 50.8001 16.5608ZM48.8788 25.0824C48.9989 24.2784 50.0796 23.3137 50.9202 23.3137C50.4399 24.4392 49.8395 25.4039 49.3592 26.5294C49.3592 26.0471 49.2391 25.7255 48.9989 25.4039C48.9989 25.2431 48.8788 25.0824 48.8788 25.0824ZM51.2804 23.3137C51.4005 25.2431 49.9596 26.0471 49.2391 27.3333C49.7194 25.8863 50.56 24.7608 51.2804 23.3137C51.1604 23.3137 51.1604 23.3137 51.2804 23.3137ZM48.6387 27.1725C48.6387 27.3333 48.5186 27.4941 48.5186 27.6549C46.7174 29.2627 43.8355 29.9059 42.1544 27.8157C41.9142 27.0118 41.7941 25.7255 42.6347 25.5647C42.7548 25.5647 42.9949 25.5647 42.9949 25.4039C43.5953 25.5647 44.1957 25.4039 44.7961 25.0824C44.9162 25.0824 45.0363 24.9216 45.1564 24.9216C45.2764 24.9216 45.3965 24.9216 45.3965 24.7608H45.5166C45.8768 24.6 46.2371 24.4392 46.5973 24.2784C46.7174 24.2784 46.7174 24.1176 46.8375 24.1176C47.7981 24.2784 48.9989 25.5647 48.6387 27.1725ZM39.5126 26.3686C39.7528 28.7804 38.4319 31.0314 37.2311 32.6392C37.3512 30.8706 39.8728 28.4588 39.1524 27.0118C38.7921 29.102 37.2311 30.8706 36.9909 33.1216C36.8708 33.2824 36.7508 33.4431 36.7508 33.7647C34.4692 33.1216 35.4299 28.9412 36.8708 27.6549V27.4941C37.5913 26.6902 38.672 26.0471 39.6327 26.2078C39.5126 26.2078 39.5126 26.2078 39.5126 26.3686ZM39.2724 25.5647C39.5126 25.4039 39.2724 24.9216 39.2724 24.6C39.7528 23.9569 40.113 23.3137 40.4732 22.6706C40.5933 23.7961 41.3138 24.6 42.1544 24.9216C41.554 25.0824 41.3138 25.8863 41.4339 26.5294C40.7134 25.8863 39.9929 25.5647 39.2724 25.5647ZM46.2371 23.6353C46.117 23.7961 45.9969 23.7961 45.8768 23.9569C45.8768 23.9569 45.8768 23.7961 45.7568 23.7961C45.1564 24.1176 44.556 24.4392 43.9556 24.4392C43.8355 24.4392 43.8355 24.4392 43.7154 24.4392C43.5953 24.4392 43.4752 24.4392 43.4752 24.4392C42.3945 24.6 41.0736 23.9569 40.8335 22.5098C40.9536 22.1882 41.0736 21.8667 41.0736 21.3843C43.2351 19.6157 45.3965 20.902 47.558 21.2235C48.2784 20.5804 45.0363 20.4196 44.676 20.098C45.5166 19.9373 46.3572 19.9373 47.1977 20.2588C48.7588 20.098 44.1957 19.1333 44.556 19.9373C43.5953 19.7765 42.5146 20.098 41.674 20.5804C44.4359 17.3647 51.1604 19.1333 46.2371 23.6353ZM41.9142 20.098C41.674 20.2588 41.4339 20.4196 41.3138 20.7412C41.3138 19.6157 41.674 18.4902 41.0736 17.5255C41.7941 17.0431 42.5146 16.2392 43.115 15.4353C42.9949 17.0431 43.8355 18.0078 44.7961 18.4902C43.7154 18.651 42.7548 19.2941 41.9142 20.098ZM46.3572 12.0588C47.1977 12.8627 46.2371 10.2902 46.4772 9.80784C46.5973 9.80784 46.5973 9.64706 46.5973 9.48627C46.5973 9.32549 46.7174 9.32549 46.7174 9.16471C46.9576 9.16471 47.1977 8.84314 47.1977 8.52157C49.2391 7.23529 51.6407 11.2549 51.1604 13.9882C50.9202 14.4706 50.4399 14.4706 50.1997 14.6314C48.6387 12.5412 45.7568 11.0941 43.9556 13.0235C44.3158 11.898 44.3158 10.7725 44.1957 9.80784C44.9162 10.2902 45.6367 10.2902 46.2371 9.64706C46.117 10.451 46.2371 11.2549 46.3572 12.0588ZM45.7568 13.0235C47.1977 13.0235 50.1997 14.7922 49.8395 17.0431C48.1584 15.4353 46.4772 12.3804 44.0756 13.9882C44.556 13.3451 45.0363 13.0235 45.7568 13.0235ZM56.564 16.4C55.3632 15.7569 53.4419 14.9529 53.682 12.702C55.4832 13.1843 56.3238 15.5961 57.8848 16.4C57.5246 16.5608 57.0443 16.4 56.564 16.4ZM58.6053 16.2392C56.8041 15.4353 55.7234 12.8627 53.9222 12.3804C56.2037 10.7725 56.8041 15.7569 58.6053 16.2392ZM60.5266 18.651C60.2864 19.9373 60.0463 21.3843 59.3258 22.0275C59.9262 21.0627 59.8061 19.6157 60.5266 18.651ZM59.0856 15.9176C57.1644 15.4353 56.0836 10.451 53.8021 12.0588C54.0423 11.4157 54.6427 10.6118 55.2431 10.6118C55.2431 10.7725 55.4832 10.7725 55.4832 10.7725C56.9242 11.2549 60.8868 13.6667 59.0856 15.9176ZM50.4399 9.00392C51.0403 7.23529 53.2017 7.71765 54.1624 8.84314C54.5226 9.16471 54.5226 9.80784 54.8828 10.1294C55.123 10.2902 55.3632 9.96863 55.2431 9.64706C56.6841 7.23529 58.4852 9.16471 58.3652 11.7373C57.5246 11.0941 56.3238 10.451 55.2431 10.2902C55.2431 10.2902 55.2431 10.2902 55.123 10.451C54.2824 10.451 53.562 11.4157 53.2017 12.3804C53.0816 12.3804 53.0816 12.5412 53.0816 12.702C52.9616 13.1843 52.9616 13.5059 52.9616 13.9882C52.6013 13.9882 52.121 13.8275 51.7608 13.5059V13.3451C51.8808 11.5765 51.2804 10.1294 50.4399 9.00392ZM49.9596 8.52157C49.2391 7.87843 48.1584 7.39608 47.1977 8.03922C47.1977 6.27059 46.7174 4.98431 45.8768 3.85882C48.1584 2.0902 49.5993 5.62745 49.9596 8.52157ZM45.1564 3.85882C45.1564 4.01961 45.2764 4.18039 45.3965 4.18039C46.2371 5.1451 46.7174 6.91373 46.4772 8.52157C46.3572 8.52157 46.2371 8.68235 46.2371 8.68235C45.0363 7.39608 44.1957 4.98431 42.5146 4.98431C42.6347 4.66274 42.6347 4.18039 42.6347 3.85882C43.4752 3.0549 44.4359 3.21569 45.1564 3.85882ZM42.3945 5.30588C43.8355 5.30588 44.676 7.55686 45.6367 8.68235C44.9162 8.36078 44.556 7.39608 44.0756 6.59216C43.115 6.27059 45.3965 9.48627 45.9969 9.00392C45.9969 9.00392 46.117 9.00392 46.117 9.16471C45.5166 9.96863 44.556 9.80784 43.9556 9.16471C43.5953 7.87843 42.6347 6.75294 41.554 7.39608C41.9142 6.59216 42.2744 5.94902 42.3945 5.30588ZM40.5933 0.803922C40.7134 2.89412 39.3925 4.34118 38.3118 5.62745C39.1524 4.01961 40.113 2.57255 40.5933 0.803922ZM36.5106 5.78824C36.7508 4.18039 38.1917 1.28627 39.5126 0.803922C39.6327 0.803922 39.6327 0.803922 39.7528 0.803922C39.9929 0.803922 40.2331 0.803922 40.4732 0.803922C39.7528 3.69804 37.5913 5.78824 36.8708 8.68235C36.3905 7.87843 36.3905 6.75294 36.5106 5.78824ZM35.9102 9.96863C35.9102 9.64706 35.67 9.32549 35.4299 9.64706C30.0263 13.8275 31.8275 4.66274 36.0303 4.98431C35.55 6.59216 35.4299 8.84314 36.3905 9.96863C36.2704 9.80784 36.1504 9.96863 35.9102 9.96863ZM37.5913 9.32549C37.4712 9.32549 37.2311 9.16471 37.111 9.16471C37.3512 5.94902 40.9536 4.66274 40.8335 0.964706C43.115 3.21569 40.8335 7.87843 38.9122 9.16471C38.4319 9.16471 38.0716 9.32549 37.5913 9.32549ZM39.0323 10.1294C39.1524 10.1294 39.2724 9.96863 39.2724 9.80784C40.7134 8.36078 42.6347 5.94902 43.4752 9.80784C43.9556 12.702 42.3945 15.7569 40.4732 16.8824C37.8315 16.4 37.9516 13.0235 39.0323 10.1294ZM34.9496 21.3843C35.7901 19.4549 37.8315 17.8471 39.5126 17.6863C35.9102 21.0627 36.2704 21.2235 39.7528 17.8471C41.0736 18.1686 37.2311 20.4196 36.9909 21.0627C36.2704 21.7059 34.3492 24.1176 35.4299 25.2431C35.67 25.4039 35.67 24.9216 35.4299 24.9216C34.7094 22.0275 40.8335 19.6157 40.2331 18.0078C40.3532 18.0078 40.3532 18.0078 40.4732 18.0078C41.554 19.4549 40.3532 20.5804 40.2331 21.8667C39.0323 25.5647 33.0283 27.8157 34.9496 21.3843ZM25.8235 15.4353C26.544 15.9176 27.0243 16.5608 27.5046 17.2039C27.5046 17.3647 27.5046 17.6863 27.6247 17.5255C27.7448 18.8118 27.2644 20.098 26.4239 20.7412C25.103 20.098 25.5833 17.5255 24.3825 16.5608C24.3825 16.4 24.2624 16.2392 24.0223 16.2392C23.4219 15.7569 22.7014 15.2745 22.101 15.1137C23.3018 14.4706 24.7428 14.7922 25.8235 15.4353ZM25.8235 20.7412C24.9829 20.098 24.8628 18.651 24.6227 17.3647C25.3432 18.3294 25.2231 19.7765 25.8235 20.7412ZM21.7408 15.7569C21.7408 15.9176 21.9809 15.9176 21.9809 15.7569C22.7014 15.9176 23.4219 16.4 24.0223 16.8824C24.3825 18.4902 24.6227 20.4196 25.8235 21.2235C23.542 21.5451 21.2604 18.8118 21.7408 15.7569ZM16.3372 22.8314C14.7761 23.4745 12.9749 23.3137 11.4139 24.4392C12.7347 22.8314 14.656 23.1529 16.2171 22.5098C16.3372 22.5098 16.3372 22.6706 16.3372 22.8314C16.3372 22.6706 16.3372 22.6706 16.3372 22.8314ZM15.7368 21.3843C15.7368 21.5451 15.8568 21.5451 15.8568 21.5451C15.8568 21.7059 15.9769 22.0275 16.097 22.1882C14.1757 22.9922 11.654 22.349 10.5733 25.2431C9.97291 21.7059 13.6954 20.902 15.7368 21.3843ZM12.6147 27.1725C12.0143 27.1725 11.2938 26.851 10.6934 26.3686C10.8135 26.2078 10.6934 26.0471 10.6934 25.8863C11.654 24.1176 13.5753 23.7961 15.1364 23.4745C15.6167 23.3137 16.2171 23.4745 16.4572 22.9922C16.8175 23.4745 17.2978 23.7961 17.7781 24.1176C17.7781 24.9216 17.2978 25.4039 16.9376 25.7255C16.8175 25.8863 16.5773 26.0471 16.4572 26.2078C15.2564 26.6902 13.9356 27.3333 12.6147 27.1725ZM18.0183 33.6039C17.658 33.9255 17.0576 33.7647 16.9376 34.4078C14.8962 33.7647 13.095 28.9412 15.3765 27.4941C15.8568 27.1726 17.2978 27.1726 17.2978 26.0471C17.658 25.5647 18.2584 25.0824 18.2584 24.2784C18.8588 24.4392 19.4592 24.4392 20.0596 24.4392C18.9789 25.7255 18.0183 28.4588 19.3392 29.7451C19.5793 30.7098 19.4592 31.5137 19.099 32.3176C18.7388 32.1569 18.2584 32.6392 18.7388 32.8C18.4986 33.2824 18.2584 33.4431 18.0183 33.6039ZM20.4199 32.8C20.1797 32.6392 19.8195 32.4784 19.4592 32.4784C19.6994 31.8353 19.6994 31.0314 19.5793 30.2274C19.8195 30.3882 19.9396 30.549 20.1797 30.549V30.7098C20.2998 30.7098 20.2998 30.7098 20.4199 30.7098V30.549C20.54 30.549 20.66 30.7098 20.7801 30.7098C20.4199 31.3529 20.2998 31.9961 20.4199 32.8ZM25.5833 35.051C26.0636 32.9608 25.4632 30.549 23.9022 29.5843C24.2624 29.2627 24.6227 28.7804 24.8628 28.1373C25.2231 28.9412 25.9436 29.5843 26.7841 29.5843C26.3038 31.1922 26.9042 32.6392 27.8648 33.6039C27.1444 33.9255 26.544 34.2471 25.5833 35.051ZM37.3512 36.6588C36.2704 35.6941 34.8295 35.8549 33.8688 37.302C33.7488 36.8196 33.6287 36.3373 33.2684 36.0157C33.8688 35.5333 35.3098 34.5686 35.0696 33.4431C34.5893 33.1216 33.8688 35.5333 32.4279 35.5333C29.666 36.498 28.9456 32.1569 31.5873 31.1922C32.548 29.9059 29.4259 31.3529 29.4259 33.6039C29.1857 33.2824 28.8255 33.4431 28.4652 33.4431C27.5046 32.6392 26.4239 31.1922 27.0243 29.5843C27.6247 29.9059 30.8668 27.8157 29.0656 27.6549C23.9022 31.1922 24.2624 23.4745 28.4652 21.8667C28.5853 22.0275 28.8255 21.8667 28.8255 21.5451C28.2251 19.6157 23.3018 25.0824 24.6227 27.8157C23.542 29.2627 21.8608 30.3882 20.4199 29.9059C20.66 27.4941 23.0616 25.8863 24.3825 24.6C24.7428 23.1529 20.1797 28.1373 20.4199 28.9412C20.66 26.2078 23.542 25.4039 24.3825 22.9922C24.3825 22.8314 24.1424 22.6706 24.1424 22.9922C23.0616 25.4039 19.9396 26.2078 20.1797 29.5843C18.2584 28.6196 19.2191 25.4039 20.54 24.2784C21.8608 23.9569 23.542 23.3137 23.9022 21.3843C24.1424 21.5451 24.3825 21.5451 24.6227 21.5451C23.7821 22.8314 25.9436 24.6 25.4632 22.9922C25.2231 22.8314 24.8628 22.5098 24.9829 22.0275C25.103 21.8667 25.103 21.7059 25.103 21.7059C25.4632 21.7059 25.8235 21.8667 26.0636 21.7059C26.4239 21.8667 26.664 21.3843 26.9042 21.2235C27.0243 21.2235 27.2644 21.2235 27.1444 20.902C27.8648 19.9373 28.3452 18.4902 27.8648 17.2039C28.105 17.0431 27.7448 16.4 27.2644 15.9176C27.8648 15.9176 28.4652 15.9176 29.0656 15.5961C28.4652 16.8824 29.1857 18.1686 30.1464 18.4902C28.2251 20.2588 28.8255 23.7961 31.3472 23.7961C27.5046 28.4588 32.3078 33.9255 35.0696 27.8157C35.3098 27.4941 35.67 26.6902 35.0696 26.5294C35.1897 26.6902 35.0696 26.851 35.0696 26.851C34.2291 28.4588 32.0676 30.549 31.107 29.102C32.0676 27.3333 33.2684 26.3686 33.9889 24.1176C34.4692 27.0118 37.5913 26.5294 38.9122 24.9216C38.9122 25.0824 39.0323 25.2431 39.1524 25.4039C35.3098 26.2078 32.3078 34.7294 37.9516 34.5686C37.4712 35.3726 37.3512 36.0157 37.3512 36.6588ZM39.5126 32.3176C38.9122 33.1216 38.0716 33.7647 37.2311 33.7647C37.2311 33.6039 37.2311 33.6039 37.2311 33.4431C38.672 31.5137 40.113 29.102 39.7528 26.0471C40.113 26.0471 40.5933 26.3686 40.9536 26.6902C40.8335 28.9412 40.9536 30.7098 39.5126 32.3176ZM41.554 35.3726C41.0736 34.5686 40.5933 33.4431 40.7134 32.4784C41.1937 31.6745 41.554 30.7098 41.674 29.7451C42.6347 30.2275 43.115 31.5137 43.5953 32.4784C43.3552 32.8 43.5953 33.1216 43.5953 33.4431C43.5953 32.8 41.3138 29.102 41.554 30.7098C42.3945 31.3529 42.9949 32.6392 43.3552 33.9255C43.5953 34.0863 43.5953 34.5686 43.7154 34.8902C43.8355 35.3726 44.0756 35.8549 43.9556 36.1765C44.0756 36.0157 44.0756 35.8549 44.0756 35.6941C44.1957 36.0157 44.3158 36.3373 44.556 36.6588C43.4752 36.8196 42.3945 36.498 41.554 35.3726ZM57.2844 29.9059C57.1644 29.5843 56.9242 29.4235 56.684 29.4235C55.123 28.4588 53.3218 26.0471 54.6427 23.9569C56.4439 24.4392 57.4045 27.1726 58.7254 28.298C58.9656 28.6196 59.3258 28.9412 59.686 29.102C59.3258 29.9059 58.2451 30.2275 57.2844 29.9059ZM59.8061 27.3333C59.8061 27.8157 59.8061 28.298 59.8061 28.6196C57.8848 27.6549 58.0049 23.3137 55.3632 23.3137C55.8435 22.9922 56.3238 22.9922 56.684 22.9922C56.684 23.1529 56.684 23.1529 56.564 23.3137C57.8848 23.7961 59.566 25.7255 59.8061 27.3333ZM58.0049 26.5294C57.2844 25.2431 56.3238 24.1176 55.123 23.6353C56.8041 23.4745 57.4045 25.0824 58.0049 26.5294ZM65.69 30.3882C65.57 30.3882 65.4499 30.549 65.4499 30.7098C65.3298 30.8706 65.0897 31.0314 64.9696 31.1922C65.2097 27.8157 62.0876 27.0118 61.0069 24.6C61.0069 24.4392 60.7668 24.4392 60.7668 24.6C61.6073 27.0118 64.4892 27.8157 64.7294 30.549C64.9696 29.5843 60.4065 24.7608 60.7668 26.2078C62.0877 27.4941 64.3692 29.102 64.7294 31.5137C63.2884 32.1569 61.4872 30.8706 60.5266 29.4235C61.3672 26.851 59.566 24.6 58.0049 23.3137C58.0049 23.1529 57.8848 23.1529 57.7648 23.1529C57.5246 22.9922 57.1644 22.8314 56.9242 22.6706C56.2037 22.349 55.2431 22.6706 54.6427 23.3137C54.5226 23.3137 54.4025 23.4745 54.5226 23.6353L54.4025 23.7961C53.9222 23.7961 53.3218 23.7961 52.8415 23.3137C52.8415 23.1529 52.6013 23.1529 52.6013 23.3137C52.8415 23.9569 53.682 24.1176 54.2824 24.1176C53.9222 24.9216 53.9222 26.0471 54.1624 26.851C53.8021 26.6902 52.121 28.6196 52.8415 28.7804C53.3218 28.4588 53.682 27.4941 54.1624 27.3333H54.2824C54.6427 28.1373 55.123 28.7804 55.6033 29.4235C55.6033 29.5843 55.6033 29.5843 55.6033 29.7451C54.8828 30.2275 54.2824 31.1922 53.9222 32.1569C53.682 32.1569 53.562 32.1569 53.3218 32.1569C53.562 30.7098 53.0816 28.7804 51.8808 28.6196C50.56 27.4941 46.3572 32.6392 48.1584 34.2471C48.7588 34.2471 48.5186 33.2824 48.6387 32.8C48.8788 31.3529 50.56 29.4235 51.6407 29.2627C51.7608 29.2627 51.8808 29.2627 51.8808 29.2627C52.8415 29.5843 52.8415 31.3529 52.9616 32.4784C52.0009 32.6392 50.9202 33.2824 50.56 34.5686C49.5993 33.9255 48.2784 34.2471 47.3178 35.2118C47.558 33.4431 46.5973 31.3529 45.3965 30.3882C45.2764 30.0667 45.0363 30.549 45.2764 30.7098C47.0776 31.9961 47.678 35.5333 45.8768 37.1412H45.7568C44.1957 36.9804 44.676 34.4078 44.0756 33.1216C44.1957 31.9961 42.6347 30.0667 41.7941 29.7451C41.7941 29.4235 41.7941 28.9412 41.7941 28.6196C41.9142 28.7804 42.0343 28.7804 42.1544 28.6196C43.5953 30.2274 45.8768 30.3882 47.558 29.5843C47.678 30.2275 48.1584 30.7098 48.6387 30.8706C48.8788 30.8706 48.9989 30.2274 48.7588 30.2274C48.3985 30.0667 48.0383 29.9059 48.0383 29.4235C48.2784 29.2627 48.6387 28.9412 48.8788 28.6196C48.8788 28.6196 48.8788 28.6196 48.9989 28.6196C48.9989 28.7804 48.6387 29.7451 48.8788 29.9059C49.119 29.9059 48.9989 29.4235 49.119 29.2627C49.4792 27.0118 51.7608 26.5294 51.6407 23.7961C52.6013 24.6 52.121 26.5294 51.8808 27.8157C51.7608 28.1373 51.5206 28.4588 51.7608 28.7804C52.4812 28.7804 52.6013 26.3686 52.7214 25.5647C52.8415 21.7059 49.4792 22.6706 48.6387 25.2431C48.1584 24.7608 47.678 24.6 47.1977 24.4392C49.8395 22.6706 48.8788 18.651 45.9969 18.8118C46.117 17.5255 43.5953 18.4902 43.5953 15.7569C43.5953 15.7569 43.7154 15.5961 43.5953 15.4353C43.7154 15.4353 43.7154 15.4353 43.7154 15.2745C45.2764 13.8275 47.3178 14.6314 48.5186 16.7216C48.1584 16.5608 45.5166 14.4706 46.2371 16.0784C47.3178 16.7216 48.6387 17.0431 49.5993 18.1686C50.0796 18.0078 49.5993 18.9725 49.4792 19.1333C49.119 19.4549 48.0383 19.2941 48.5186 20.098C48.9989 20.4196 49.5993 19.9373 49.9596 19.7765C49.9596 20.902 50.56 22.8314 51.4005 22.8314C51.4005 21.7059 50.0796 21.3843 50.4399 19.1333C50.8001 18.4902 50.9202 18.1686 50.9202 17.5255C53.0816 16.5608 55.4832 19.2941 55.6033 22.1882C55.9636 22.9922 56.2037 22.0275 56.0836 21.3843C56.564 21.5451 56.9242 21.5451 57.4045 21.3843C57.5246 21.8667 57.8848 22.349 58.125 22.6706C58.0049 22.8314 58.2451 22.9922 58.3652 22.9922C58.6053 23.1529 58.8455 23.6353 59.2057 23.4745C59.566 23.4745 59.9262 23.4745 60.1664 23.4745C60.1664 23.6353 60.1664 23.7961 60.2864 23.7961C60.4065 24.2784 60.0463 24.6 59.8061 24.7608C59.3258 26.3686 61.4873 24.6 60.6467 23.3137C60.8869 23.3137 61.127 23.1529 61.3672 23.1529C61.7274 25.0824 63.2884 25.8863 64.7294 26.0471C65.69 26.851 66.5306 29.102 65.69 30.3882ZM66.1704 27.1725C66.1704 27.3333 66.0503 27.3333 66.0503 27.4941C65.8101 26.851 65.4499 26.3686 65.0897 25.8863C65.69 25.8863 66.2905 26.0471 66.8908 25.7255C66.8908 25.8863 66.8908 26.2078 67.0109 26.3686C66.6507 26.2078 66.4105 26.6902 66.1704 27.1725ZM68.0917 28.4588C68.0917 29.5843 68.0917 31.0314 68.572 32.1569C67.6113 30.8706 68.4519 28.4588 67.4912 27.0118C67.6113 27.1725 67.7314 27.3333 67.9716 27.4941V27.6549L68.0917 27.8157C67.9716 27.9765 68.0917 28.298 68.0917 28.4588ZM68.572 27.3333C68.4519 27.1726 68.2117 27.0118 68.0917 26.851C67.7314 26.5294 67.131 26.0471 67.2511 25.2431C67.7314 24.9216 68.2117 24.6 68.572 24.1176C68.8121 24.7608 69.5326 24.6 69.8929 24.6C71.4539 24.9216 73.3752 25.2431 74.3358 27.0118C74.3358 27.1725 74.2157 27.3333 74.3358 27.4941C72.6547 29.2627 70.3732 28.298 68.572 27.3333ZM80.0997 29.7451C79.4993 29.5843 78.8989 29.5843 78.2985 29.5843C78.2985 29.4235 78.1784 29.2627 78.1784 29.102C78.8989 29.102 79.4993 29.4235 80.0997 29.7451Z" fill="#346448"/>
</svg>
