<svg width="14" height="14" viewBox="0 0 14 14" fill="none" xmlns="http://www.w3.org/2000/svg">
<path d="M4.6375 10.325C4.01182 10.325 3.5 10.8368 3.5 11.4625C3.5 12.0882 4.01182 12.6 4.6375 12.6C5.26318 12.6 5.77503 12.0882 5.77503 11.4625C5.775 10.8368 5.26315 10.325 4.6375 10.325ZM1.3125 1.40002V2.53752H2.45L4.49758 6.68507L3.6415 8.07835C3.55625 8.22053 3.49932 8.41965 3.49932 8.61879C3.49932 9.38032 4.01953 9.75629 4.725 9.75629H11.375V8.66254H4.86426C4.779 8.66254 4.72207 8.60562 4.72207 8.52036C4.72207 8.49203 4.78242 8.37817 4.78242 8.37817L5.35068 7.4813H9.5877C10.0143 7.4813 10.3842 7.25388 10.583 6.88422L12.6306 3.36235C12.6644 3.29505 12.6875 3.19156 12.6875 3.078C12.6875 2.76502 12.4315 2.53755 12.1188 2.53755H3.70136L3.16094 1.40002H1.3125ZM10.2375 10.325C9.61179 10.325 9.09997 10.8368 9.09997 11.4625C9.09997 12.0882 9.61179 12.6 10.2375 12.6C10.8632 12.6 11.375 12.0882 11.375 11.4625C11.375 10.8368 10.8632 10.325 10.2375 10.325Z" fill="#555555"/>
</svg>
