<svg width="23" height="23" viewBox="0 0 23 23" fill="none" xmlns="http://www.w3.org/2000/svg">
<g clip-path="url(#clip0_1281_23789)">
<path d="M5.8323 22.9186C4.94268 22.9087 4.06142 22.7455 3.22722 22.4363C2.61804 22.2111 2.06689 21.8526 1.61406 21.3871C1.14724 20.9351 0.788242 20.3838 0.563725 19.7741C0.254748 18.94 0.0918156 18.0588 0.0820784 17.1693C0.0137549 15.6905 0 15.247 0 11.5C0 7.75303 0.0151078 7.31107 0.081402 5.83118C0.0923208 4.94202 0.255454 4.0613 0.563725 3.22722C0.789335 2.61794 1.14783 2.06657 1.61316 1.61316C2.06543 1.14676 2.61684 0.788093 3.22654 0.563725C4.06075 0.254492 4.942 0.0913299 5.83163 0.081402C7.31084 0.0137549 7.75506 0 11.5 0C15.2449 0 15.6889 0.0151078 17.1688 0.081402C18.0582 0.0922436 18.9392 0.255378 19.7735 0.563725C20.3829 0.788389 20.9342 1.14693 21.3866 1.61293C21.8528 2.06555 22.2114 2.61695 22.4363 3.22654C22.7456 4.06073 22.9088 4.94199 22.9188 5.83163C22.9865 7.31152 23.0002 7.75461 23.0002 11.5005C23.0002 15.2463 22.9865 15.6894 22.9188 17.1693C22.9081 18.0588 22.7449 18.9398 22.4363 19.7741C22.2028 20.3792 21.8453 20.9286 21.3867 21.3871C20.9281 21.8456 20.3785 22.203 19.7735 22.4363C18.9393 22.7456 18.058 22.9088 17.1684 22.9188C15.6898 22.9865 15.2454 23.0002 11.4995 23.0002C7.75371 23.0002 7.31062 22.9871 5.83208 22.9188" fill="url(#paint0_radial_1281_23789)"/>
<path d="M5.8323 22.9186C4.94268 22.9087 4.06142 22.7455 3.22722 22.4363C2.61804 22.2111 2.06689 21.8526 1.61406 21.3871C1.14724 20.9351 0.788242 20.3838 0.563725 19.7741C0.254748 18.94 0.0918156 18.0588 0.0820784 17.1693C0.0137549 15.6905 0 15.247 0 11.5C0 7.75303 0.0151078 7.31107 0.081402 5.83118C0.0923208 4.94202 0.255454 4.0613 0.563725 3.22722C0.789335 2.61794 1.14783 2.06657 1.61316 1.61316C2.06543 1.14676 2.61684 0.788093 3.22654 0.563725C4.06075 0.254492 4.942 0.0913299 5.83163 0.081402C7.31084 0.0137549 7.75506 0 11.5 0C15.2449 0 15.6889 0.0151078 17.1688 0.081402C18.0582 0.0922436 18.9392 0.255378 19.7735 0.563725C20.3829 0.788389 20.9342 1.14693 21.3866 1.61293C21.8528 2.06555 22.2114 2.61695 22.4363 3.22654C22.7456 4.06073 22.9088 4.94199 22.9188 5.83163C22.9865 7.31152 23.0002 7.75461 23.0002 11.5005C23.0002 15.2463 22.9865 15.6894 22.9188 17.1693C22.9081 18.0588 22.7449 18.9398 22.4363 19.7741C22.2028 20.3792 21.8453 20.9286 21.3867 21.3871C20.9281 21.8456 20.3785 22.203 19.7735 22.4363C18.9393 22.7456 18.058 22.9088 17.1684 22.9188C15.6898 22.9865 15.2454 23.0002 11.4995 23.0002C7.75371 23.0002 7.31062 22.9871 5.83208 22.9188" fill="url(#paint1_radial_1281_23789)"/>
<path d="M8.67622 11.5489C8.67626 10.9856 8.84335 10.4349 9.15636 9.96659C9.46937 9.49823 9.91423 9.13321 10.4347 8.91768C10.9552 8.70216 11.5278 8.64582 12.0803 8.75578C12.6328 8.86574 13.1403 9.13706 13.5386 9.53544C13.9369 9.93381 14.2081 10.4414 14.3179 10.9939C14.4277 11.5464 14.3712 12.1191 14.1556 12.6395C13.9399 13.1599 13.5748 13.6047 13.1064 13.9176C12.6379 14.2305 12.0873 14.3974 11.5239 14.3973C10.7686 14.3972 10.0442 14.097 9.51018 13.5629C8.97614 13.0287 8.67616 12.3043 8.67622 11.5489ZM7.13634 11.5489C7.13634 12.4167 7.39367 13.265 7.87578 13.9865C8.3579 14.7081 9.04315 15.2705 9.84487 15.6025C10.6466 15.9346 11.5288 16.0215 12.3799 15.8522C13.231 15.6829 14.0128 15.265 14.6264 14.6514C15.24 14.0378 15.6579 13.256 15.8272 12.4049C15.9965 11.5538 15.9096 10.6716 15.5775 9.86987C15.2454 9.06815 14.6831 8.3829 13.9615 7.90078C13.24 7.41867 12.3917 7.16134 11.5239 7.16134C10.9477 7.16131 10.3772 7.27478 9.84484 7.49527C9.3125 7.71575 8.8288 8.03894 8.42137 8.44637C8.01394 8.8538 7.69076 9.3375 7.47027 9.86984C7.24978 10.4022 7.13631 10.9727 7.13634 11.5489ZM15.0598 6.98749C15.0598 7.19027 15.1198 7.38853 15.2324 7.55719C15.345 7.72585 15.505 7.85734 15.6924 7.93502C15.8797 8.01271 16.0858 8.03311 16.2847 7.99363C16.4836 7.95416 16.6664 7.85659 16.8098 7.71326C16.9533 7.56993 17.051 7.38728 17.0907 7.18841C17.1303 6.98954 17.1101 6.78337 17.0326 6.59599C16.9551 6.40861 16.8237 6.24842 16.6551 6.13569C16.4866 6.02295 16.2884 5.96273 16.0856 5.96264C15.8138 5.96276 15.5531 6.07076 15.3609 6.26292C15.1686 6.45507 15.0605 6.71568 15.0603 6.98749M8.07235 18.5042C7.53053 18.4982 6.99376 18.3991 6.48557 18.211C6.11703 18.069 5.78231 17.8513 5.50296 17.5721C5.22362 17.2929 5.00583 16.9583 4.86362 16.5898C4.67551 16.0816 4.57635 15.5448 4.57049 15.003C4.529 14.1024 4.52088 13.8318 4.52088 11.5501C4.52088 9.26832 4.5299 8.99841 4.57049 8.0969C4.57706 7.55514 4.6762 7.01848 4.86362 6.51012C5.00567 6.14146 5.22339 5.80666 5.50275 5.5273C5.78211 5.24794 6.11691 5.03022 6.48557 4.88817C6.99374 4.70007 7.53052 4.60091 8.07235 4.59504C8.97296 4.55355 9.24355 4.54543 11.5244 4.54543C13.8052 4.54543 14.076 4.55423 14.9775 4.59527C15.5193 4.60184 16.056 4.70098 16.5643 4.8884C16.933 5.03046 17.2678 5.24818 17.5471 5.52754C17.8265 5.8069 18.0442 6.1417 18.1863 6.51035C18.3744 7.01852 18.4735 7.5553 18.4794 8.09713C18.5209 8.99909 18.529 9.26833 18.529 11.5503C18.529 13.8322 18.5207 14.1019 18.4794 15.0034C18.4731 15.5452 18.3739 16.0819 18.1863 16.5902C18.0441 16.9587 17.8263 17.2933 17.5469 17.5726C17.2676 17.8518 16.9329 18.0694 16.5643 18.2115C16.0561 18.3996 15.5194 18.4988 14.9775 18.5046C14.0769 18.5461 13.8063 18.5542 11.5244 18.5542C9.24242 18.5542 8.97273 18.5459 8.07235 18.5046M8.00155 3.05652C7.29257 3.07046 6.5911 3.20465 5.92704 3.45338C5.35937 3.67286 4.84383 4.00855 4.41346 4.43891C3.9831 4.86928 3.64741 5.38482 3.42793 5.95249C3.17923 6.61656 3.04504 7.31803 3.03107 8.027C2.9889 8.93798 2.97943 9.22931 2.97943 11.5498C2.97943 13.8704 2.98913 14.1615 3.03107 15.0727C3.04504 15.7816 3.17923 16.4831 3.42793 17.1472C3.64743 17.7148 3.98312 18.2304 4.41348 18.6607C4.84384 19.0911 5.35937 19.4268 5.92704 19.6463C6.59113 19.8949 7.29258 20.0291 8.00155 20.0431C8.91298 20.0846 9.20386 20.0948 11.5244 20.0948C13.8449 20.0948 14.136 20.0851 15.0472 20.0431C15.7562 20.0291 16.4576 19.895 17.1217 19.6463C17.6894 19.4268 18.2049 19.0911 18.6353 18.6607C19.0656 18.2304 19.4013 17.7148 19.6208 17.1472C19.8699 16.4832 20.0041 15.7817 20.0177 15.0727C20.0592 14.161 20.0687 13.8704 20.0687 11.5498C20.0687 9.22931 20.059 8.93821 20.0177 8.027C20.0038 7.31802 19.8696 6.61655 19.6208 5.95249C19.4013 5.38493 19.0657 4.86946 18.6355 4.43911C18.2053 4.00877 17.6899 3.67302 17.1224 3.45338C16.4584 3.20449 15.7569 3.07029 15.0479 3.05652C14.1367 3.01481 13.8456 3.00488 11.5255 3.00488C9.20544 3.00488 8.91365 3.01458 8.002 3.05652" fill="white"/>
</g>
<defs>
<radialGradient id="paint0_radial_1281_23789" cx="0" cy="0" r="1" gradientUnits="userSpaceOnUse" gradientTransform="translate(1.48846 22.4963) scale(29.2014)">
<stop offset="0.09" stop-color="#FA8F21"/>
<stop offset="0.78" stop-color="#D82D7E"/>
</radialGradient>
<radialGradient id="paint1_radial_1281_23789" cx="0" cy="0" r="1" gradientUnits="userSpaceOnUse" gradientTransform="translate(15.9313 21.7575) scale(25.6975)">
<stop offset="0.64" stop-color="#8C3AAA" stop-opacity="0"/>
<stop offset="1" stop-color="#8C3AAA"/>
</radialGradient>
<clipPath id="clip0_1281_23789">
<rect width="23" height="23" fill="white"/>
</clipPath>
</defs>
</svg>
