<svg width="47" height="47" viewBox="0 0 47 47" fill="none" xmlns="http://www.w3.org/2000/svg">
<g id="instagram (1) 1" clip-path="url(#clip0_1334_36731)">
<g id="Clip path group">
<mask id="mask0_1334_36731" style="mask-type:luminance" maskUnits="userSpaceOnUse" x="0" y="0" width="47" height="47">
<g id="b">
<path id="Vector" d="M23.5 47C36.4787 47 47 36.4787 47 23.5C47 10.5213 36.4787 0 23.5 0C10.5213 0 0 10.5213 0 23.5C0 36.4787 10.5213 47 23.5 47Z" fill="white"/>
</g>
</mask>
<g mask="url(#mask0_1334_36731)">
<g id="Group">
<path id="Vector_2" d="M23.2045 133.61C66.0586 133.61 100.799 98.8699 100.799 56.0157C100.799 13.1616 66.0586 -21.5786 23.2045 -21.5786C-19.6497 -21.5786 -54.3899 13.1616 -54.3899 56.0157C-54.3899 98.8699 -19.6497 133.61 23.2045 133.61Z" fill="url(#paint0_radial_1334_36731)"/>
</g>
</g>
</g>
<path id="Vector_3" d="M30.1094 18.7266C31.1233 18.7266 31.9453 17.9046 31.9453 16.8906C31.9453 15.8767 31.1233 15.0547 30.1094 15.0547C29.0954 15.0547 28.2734 15.8767 28.2734 16.8906C28.2734 17.9046 29.0954 18.7266 30.1094 18.7266Z" fill="white"/>
<path id="Vector_4" d="M23.5 17.625C22.338 17.625 21.2022 17.9696 20.236 18.6151C19.2699 19.2607 18.5169 20.1782 18.0722 21.2517C17.6275 22.3253 17.5112 23.5065 17.7379 24.6462C17.9646 25.7858 18.5241 26.8326 19.3458 27.6543C20.1674 28.4759 21.2142 29.0354 22.3538 29.2621C23.4935 29.4888 24.6748 29.3725 25.7483 28.9278C26.8218 28.4831 27.7393 27.7301 28.3849 26.764C29.0304 25.7978 29.375 24.662 29.375 23.5C29.375 21.9419 28.756 20.4475 27.6543 19.3457C26.5525 18.244 25.0582 17.625 23.5 17.625ZM23.5 26.4375C22.919 26.4375 22.3511 26.2652 21.868 25.9424C21.3849 25.6197 21.0084 25.1609 20.7861 24.6241C20.5638 24.0874 20.5056 23.4967 20.6189 22.9269C20.7323 22.3571 21.0121 21.8337 21.4229 21.4229C21.8337 21.0121 22.3571 20.7323 22.9269 20.6189C23.4967 20.5056 24.0874 20.5638 24.6241 20.7861C25.1609 21.0084 25.6197 21.3849 25.9424 21.868C26.2652 22.3511 26.4375 22.919 26.4375 23.5C26.4375 24.2791 26.128 25.0262 25.5771 25.5771C25.0262 26.128 24.2791 26.4375 23.5 26.4375Z" fill="white"/>
<path id="Vector_5" d="M30.8438 11.75H16.1562C13.7227 11.75 11.75 13.7227 11.75 16.1562V30.8438C11.75 33.2773 13.7227 35.25 16.1562 35.25H30.8438C33.2773 35.25 35.25 33.2773 35.25 30.8438V16.1562C35.25 13.7227 33.2773 11.75 30.8438 11.75Z" stroke="white" stroke-width="2" stroke-miterlimit="10"/>
</g>
<defs>
<radialGradient id="paint0_radial_1334_36731" cx="0" cy="0" r="1" gradientUnits="userSpaceOnUse" gradientTransform="translate(23.2045 56.0157) scale(77.5943)">
<stop stop-color="#FFD676"/>
<stop offset="0.25" stop-color="#F2A454"/>
<stop offset="0.38" stop-color="#F05C3C"/>
<stop offset="0.7" stop-color="#C22F86"/>
<stop offset="0.96" stop-color="#6666AD"/>
<stop offset="0.99" stop-color="#5C6CB2"/>
</radialGradient>
<clipPath id="clip0_1334_36731">
<rect width="47" height="47" fill="white"/>
</clipPath>
</defs>
</svg>
