<svg width="37" height="37" viewBox="0 0 37 37" fill="none" xmlns="http://www.w3.org/2000/svg">
<path d="M3.0835 18.5002C3.0835 9.98577 9.98577 3.0835 18.5002 3.0835C27.0146 3.0835 33.9168 9.98577 33.9168 18.5002C33.9168 27.0146 27.0146 33.9168 18.5002 33.9168C9.98577 33.9168 3.0835 27.0146 3.0835 18.5002Z" fill="white"/>
<path fill-rule="evenodd" clip-rule="evenodd" d="M16.1564 12.3826C16.5551 11.9396 17.2375 11.9037 17.6805 12.3024L16.9586 13.1046L16.2366 13.9067C15.7936 13.508 15.7577 12.8257 16.1564 12.3826ZM16.9586 23.8962L16.2367 23.0941L16.2958 23.0408L16.4653 22.8872C16.6117 22.7544 16.8211 22.5639 17.0725 22.3335C17.5756 21.8723 18.245 21.2531 18.9132 20.6183C19.584 19.981 20.2429 19.3382 20.7298 18.8269C20.8441 18.7069 20.9455 18.5977 21.0331 18.5004C20.9455 18.4031 20.8441 18.2939 20.7298 18.1739C20.2429 17.6626 19.584 17.0198 18.9132 16.3825C18.245 15.7477 17.5756 15.1285 17.0725 14.6673C16.8211 14.4369 16.6117 14.2464 16.4653 14.1136L16.2958 13.96L16.2366 13.9067L16.9586 13.1046L17.6805 12.3024L17.7426 12.3584L17.9155 12.515C18.0642 12.6499 18.2764 12.843 18.5309 13.0763C19.0395 13.5425 19.719 14.171 20.3998 14.8177C21.0779 15.462 21.768 16.1344 22.2928 16.6854C22.5529 16.9586 22.7887 17.2188 22.9652 17.4395C23.0519 17.5478 23.1424 17.669 23.2167 17.7915C23.2538 17.8528 23.2992 17.9344 23.3381 18.0296C23.3711 18.1105 23.4336 18.2816 23.4336 18.5004C23.4336 18.7192 23.3711 18.8903 23.3381 18.9712C23.2992 19.0664 23.2538 19.148 23.2167 19.2093C23.1424 19.3318 23.0519 19.453 22.9652 19.5613C22.7887 19.782 22.5529 20.0422 22.2928 20.3154C21.768 20.8664 21.0779 21.5388 20.3998 22.1831C19.719 22.8298 19.0395 23.4583 18.5309 23.9245C18.2764 24.1578 18.0642 24.3509 17.9155 24.4858L17.7426 24.6424L17.6817 24.6973L16.9586 23.8962ZM16.9586 23.8962L16.2367 23.0941C15.7937 23.4928 15.7577 24.1751 16.1564 24.6182C16.5551 25.0612 17.2375 25.0971 17.6805 24.6984L16.9586 23.8962Z" fill="black"/>
</svg>
