<svg width="30" height="30" viewBox="0 0 30 30" fill="none" xmlns="http://www.w3.org/2000/svg">
<path d="M27.5 21.1501V24.9001C27.5014 25.2482 27.4301 25.5928 27.2906 25.9118C27.1512 26.2308 26.9466 26.5171 26.6901 26.7525C26.4336 26.9878 26.1307 27.167 25.8009 27.2785C25.4712 27.39 25.1217 27.4315 24.775 27.4001C20.9286 26.9822 17.2338 25.6678 13.9875 23.5626C10.9673 21.6435 8.40668 19.0828 6.48751 16.0626C4.37498 12.8016 3.06031 9.08886 2.65001 5.22512C2.61877 4.87945 2.65985 4.53107 2.77063 4.20215C2.88142 3.87323 3.05947 3.57098 3.29347 3.31465C3.52746 3.05831 3.81226 2.85351 4.12975 2.71327C4.44723 2.57304 4.79043 2.50045 5.13751 2.50012H8.88751C9.49414 2.49415 10.0822 2.70897 10.5422 3.10454C11.0022 3.5001 11.3026 4.04943 11.3875 4.65012C11.5458 5.8502 11.8393 7.02853 12.2625 8.16262C12.4307 8.61003 12.4671 9.09626 12.3674 9.56372C12.2677 10.0312 12.0361 10.4603 11.7 10.8001L10.1125 12.3876C11.892 15.5171 14.4831 18.1082 17.6125 19.8876L19.2 18.3001C19.5399 17.964 19.969 17.7324 20.4364 17.6327C20.9039 17.533 21.3901 17.5694 21.8375 17.7376C22.9716 18.1608 24.1499 18.4543 25.35 18.6126C25.9572 18.6983 26.5118 19.0041 26.9082 19.472C27.3046 19.9399 27.5152 20.5371 27.5 21.1501Z" fill="white"/>
</svg>
