<svg width="37" height="37" viewBox="0 0 37 37" fill="none" xmlns="http://www.w3.org/2000/svg">
<path d="M33.9165 18.4998C33.9165 27.0142 27.0142 33.9165 18.4998 33.9165C9.98545 33.9165 3.08317 27.0142 3.08317 18.4998C3.08317 9.98544 9.98545 3.08317 18.4998 3.08317C27.0142 3.08317 33.9165 9.98545 33.9165 18.4998Z" fill="white"/>
<path fill-rule="evenodd" clip-rule="evenodd" d="M20.8436 24.6174C20.4449 25.0604 19.7625 25.0963 19.3195 24.6976L20.0414 23.8954L20.7634 23.0933C21.2064 23.492 21.2423 24.1743 20.8436 24.6174ZM20.0414 13.1038L20.7633 13.9059L20.7042 13.9592L20.5347 14.1128C20.3883 14.2456 20.1789 14.4361 19.9276 14.6665C19.4244 15.1277 18.755 15.7469 18.0868 16.3817C17.416 17.019 16.7571 17.6618 16.2702 18.1731C16.1559 18.2931 16.0545 18.4023 15.9669 18.4996C16.0545 18.5969 16.1559 18.7061 16.2702 18.8261C16.7571 19.3374 17.416 19.9802 18.0868 20.6175C18.755 21.2523 19.4244 21.8715 19.9276 22.3327C20.1789 22.5631 20.3883 22.7536 20.5347 22.8864L20.7042 23.04L20.7634 23.0933L20.0414 23.8954L19.3195 24.6976L19.2574 24.6416L19.0845 24.485C18.9358 24.3501 18.7236 24.157 18.4691 23.9237C17.9605 23.4575 17.281 22.829 16.6002 22.1823C15.9221 21.538 15.232 20.8656 14.7072 20.3146C14.4471 20.0414 14.2113 19.7812 14.0348 19.5605C13.9481 19.4522 13.8576 19.331 13.7833 19.2085C13.7462 19.1472 13.7008 19.0656 13.6619 18.9704C13.6289 18.8895 13.5664 18.7184 13.5664 18.4996C13.5664 18.2808 13.6289 18.1097 13.6619 18.0288C13.7008 17.9336 13.7462 17.852 13.7833 17.7907C13.8576 17.6682 13.9481 17.547 14.0348 17.4387C14.2113 17.218 14.4471 16.9578 14.7072 16.6846C15.232 16.1336 15.9221 15.4612 16.6002 14.8169C17.281 14.1702 17.9605 13.5417 18.4691 13.0755C18.7236 12.8422 18.9358 12.6491 19.0845 12.5142L19.2574 12.3576L19.3183 12.3027L20.0414 13.1038ZM20.0414 13.1038L20.7633 13.9059C21.2063 13.5072 21.2423 12.8249 20.8436 12.3818C20.4449 11.9388 19.7625 11.9029 19.3195 12.3016L20.0414 13.1038Z" fill="black"/>
</svg>
