<svg width="49" height="49" viewBox="0 0 49 49" fill="none" xmlns="http://www.w3.org/2000/svg">
<g id="tiktok-square 1" clip-path="url(#clip0_1334_36706)">
<path id="Path 31" d="M0 24.5C0 10.969 10.969 0 24.5 0C38.031 0 49 10.969 49 24.5C49 38.031 38.031 49 24.5 49C10.969 49 0 38.031 0 24.5Z" fill="black"/>
<g id="Group 2188">
<path id="Path 32" d="M14.7842 28.863L14.8624 29.0916C14.8538 29.0665 14.8233 28.9871 14.7842 28.863ZM18.0092 23.65C18.0519 23.1223 18.213 22.611 18.4806 22.1542C18.7481 21.6973 19.1152 21.3066 19.5546 21.0112C20.8664 20.0521 22.5014 20.5937 22.5014 20.5937V17.3683C22.8987 17.3582 23.2961 17.3831 23.6891 17.4426V21.5908C23.6891 21.5908 22.0541 21.0492 20.7423 22.0084C20.3029 22.3038 19.9358 22.6944 19.6683 23.1513C19.4007 23.6081 19.2396 24.1194 19.1969 24.6472C19.1658 25.468 19.4011 26.2769 19.8677 26.9529C19.7283 26.8786 19.5894 26.794 19.4454 26.6993C18.9711 26.3507 18.5914 25.8893 18.3406 25.3568C18.0898 24.8243 17.9759 24.2377 18.0092 23.65ZM30.4537 11.4051C29.7472 10.6156 29.274 9.64518 29.0872 8.60229H30.2221C30.1731 10.0079 30.6843 11.3754 31.6434 12.4041L31.6685 12.4288C31.2226 12.14 30.815 11.796 30.4553 11.4051H30.4537ZM35.9153 14.3272V18.3924C35.0669 18.3536 34.2237 18.2389 33.3958 18.0496C32.5346 17.8292 31.7083 17.4896 30.941 17.0407C30.941 17.0407 30.2757 16.6036 30.2252 16.5735V24.972C30.1973 25.8623 30.0296 26.7428 29.7282 27.581C29.0142 29.4281 27.6098 30.9251 25.8121 31.7554C24.8334 32.2063 23.7687 32.4401 22.6912 32.441C21.1978 32.4367 19.7376 31.9999 18.487 31.1837C18.0554 30.8859 17.6527 30.5481 17.2844 30.1748L17.2942 30.1846C18.5436 31.0035 20.0046 31.4404 21.4984 31.442C22.5759 31.441 23.6406 31.2072 24.6193 30.7563C26.417 29.926 27.8214 28.429 28.5354 26.5819C28.8368 25.7437 29.0045 24.8632 29.0324 23.9729V15.5795C29.0872 15.6092 29.7482 16.0467 29.7482 16.0467C30.5155 16.4956 31.3418 16.8352 32.203 17.0556C33.0309 17.2449 33.8741 17.3596 34.7225 17.3984V14.2129C35.1114 14.3128 35.5136 14.3514 35.9145 14.3272H35.9153Z" fill="#EE1D52"/>
<path id="Path 33" d="M34.7228 14.2078V17.3933C33.8745 17.3545 33.0313 17.2398 32.2034 17.0505C31.3421 16.8301 30.5159 16.4906 29.7485 16.0416C29.7485 16.0416 29.0832 15.6045 29.0328 15.5744V23.9729C29.0049 24.8632 28.8372 25.7437 28.5358 26.5819C27.8218 28.429 26.4174 29.926 24.6196 30.7563C23.6409 31.2072 22.5763 31.441 21.4987 31.442C20.0053 31.4376 18.5452 31.0009 17.2946 30.1846L17.2848 30.1748C17.0759 29.9619 16.8785 29.738 16.6935 29.5041C16.2233 28.8823 15.8451 28.1962 15.5703 27.4667V27.4617C15.2712 26.5886 15.1217 25.6713 15.1281 24.7485C15.1496 23.5456 15.4616 22.3657 16.0376 21.3094C16.4969 20.4942 17.0937 19.7646 17.8018 19.1528C18.4274 18.6256 19.136 18.2057 19.8989 17.9103C20.7239 17.5629 21.6079 17.3769 22.5029 17.3624V20.5874C22.5029 20.5874 20.8679 20.0458 19.5561 21.005C19.0875 21.3134 18.701 21.7313 18.4303 22.2227C18.1596 22.7141 18.0127 23.2641 18.0024 23.825C17.9921 24.3859 18.1187 24.9409 18.3713 25.4419C18.6238 25.9429 18.9946 26.3747 19.4516 26.7001C19.5956 26.7944 19.735 26.879 19.8739 26.9537C20.3528 27.5912 21.035 28.0461 21.8076 28.243C22.5803 28.44 23.397 28.3673 24.1226 28.0369C24.5437 27.8529 24.9212 27.5821 25.2303 27.2422C25.5394 26.9022 25.7733 26.5008 25.9165 26.0642C26.0717 25.5356 26.134 24.9841 26.1005 24.4343V8.60229H29.0821C29.2667 9.64592 29.7401 10.6169 30.4486 11.4051C30.8105 11.7937 31.2178 12.1374 31.6618 12.4288C32.1415 12.9432 32.7042 13.3732 33.3265 13.701C33.7704 13.9247 34.2391 14.0955 34.7228 14.2098V14.2078Z" fill="white"/>
<g id="Group 4">
<path id="Path 34" d="M14.3818 26.4824L14.4562 26.6961C14.4464 26.6714 14.4167 26.5967 14.3818 26.4824Z" fill="#69C9D0"/>
<path id="Path 35" d="M19.8981 17.9154C19.1347 18.2097 18.4258 18.6296 17.801 19.1579C17.0914 19.7701 16.4944 20.5017 16.0368 21.3196C15.4599 22.3755 15.1479 23.5556 15.1273 24.7587C15.1229 25.6815 15.2723 26.5986 15.5695 27.4722V27.4773C15.8453 28.2063 16.2235 28.8923 16.6927 29.5146C16.8777 29.7486 17.0751 29.9725 17.284 30.1854C16.6108 29.719 16.0097 29.1564 15.4999 28.5155C15.0304 27.8978 14.6537 27.2147 14.3818 26.488V26.4782C14.0799 25.6042 13.9303 24.6847 13.9396 23.76C13.9611 22.5571 14.2731 21.3772 14.8491 20.3209C15.3067 19.503 15.9037 18.7715 16.6132 18.1592C17.4179 17.4718 18.3596 16.9634 19.3758 16.6678C20.3919 16.3722 21.4594 16.2962 22.5072 16.4447V17.3691C21.6104 17.383 20.7247 17.569 19.8981 17.9169V17.9154Z" fill="#69C9D0"/>
<path id="Path 36" d="M29.0868 8.60221H26.1052V24.435C26.1363 24.9848 26.0741 25.5358 25.9213 26.0649C25.7757 26.5002 25.541 26.9005 25.2321 27.2402C24.9232 27.5798 24.547 27.8514 24.1274 28.0376C23.573 28.3072 22.955 28.4187 22.3413 28.36C21.7276 28.3012 21.142 28.0745 20.6488 27.7046C20.3525 27.5013 20.0922 27.25 19.8787 26.9611C20.3444 27.2186 20.8653 27.3602 21.3973 27.3739C21.9293 27.3875 22.4567 27.2727 22.935 27.0393C23.3556 26.8546 23.7327 26.5836 24.0417 26.2437C24.3508 25.9038 24.5849 25.5028 24.7289 25.0666C24.8841 24.538 24.9463 23.9865 24.9128 23.4367V7.60352H29.0324C29.0025 7.9373 29.0208 8.27365 29.0868 8.60221ZM34.7221 13.328V14.2077C33.5439 13.9415 32.4756 13.3206 31.6611 12.4287C31.8153 12.5281 31.9691 12.6177 32.133 12.7027C32.9298 13.1253 33.8202 13.3405 34.7221 13.3284V13.328Z" fill="#69C9D0"/>
</g>
<path id="Path 38" d="M29.1856 38.6273C29.1847 38.7402 29.2015 38.8526 29.2353 38.9603C29.2353 38.9701 29.2404 38.9752 29.2404 38.985C29.3203 39.2414 29.4801 39.4656 29.6964 39.6247C29.9128 39.7839 30.1744 39.8696 30.443 39.8694V41.1416C29.8378 41.2038 29.2285 41.0715 28.7035 40.764C28.3281 40.5312 28.0202 40.2043 27.8102 39.8156C27.6003 39.427 27.4956 38.9902 27.5067 38.5487C27.5177 38.1071 27.644 37.6761 27.8731 37.2984C28.1023 36.9208 28.4262 36.6097 28.8127 36.3959C29.3186 36.1433 29.8843 36.035 30.4477 36.0828V37.3551C30.2825 37.3548 30.1189 37.3871 29.9662 37.4502C29.8136 37.5133 29.6748 37.6059 29.558 37.7228C29.4412 37.8396 29.3486 37.9783 29.2855 38.1309C29.2224 38.2836 29.1901 38.4472 29.1903 38.6124L29.1856 38.6273Z" fill="#69C9D0"/>
<path id="Path 39" d="M31.7102 38.6271C31.7111 38.74 31.6944 38.8524 31.6605 38.9601C31.6605 38.9699 31.6554 38.975 31.6554 38.9848C31.5756 39.2412 31.4158 39.4654 31.1994 39.6245C30.983 39.7837 30.7214 39.8694 30.4528 39.8692V41.1414C31.0564 41.2035 31.6641 41.0712 32.1873 40.7638C32.5574 40.5404 32.863 40.2245 33.0739 39.8471C33.2848 39.4696 33.3937 39.0438 33.3898 38.6115C33.3915 38.1586 33.2709 37.7137 33.0409 37.3236C32.8109 36.9335 32.4799 36.6126 32.0828 36.3949C31.5769 36.1423 31.0112 36.034 30.4478 36.0818V37.3541C30.6129 37.3538 30.7766 37.3862 30.9292 37.4493C31.0819 37.5124 31.2206 37.605 31.3374 37.7218C31.4542 37.8386 31.5468 37.9773 31.6099 38.13C31.673 38.2826 31.7054 38.4463 31.7051 38.6115V38.6263L31.7102 38.6271Z" fill="#EE1D52"/>
<path id="Path 40" d="M10.9827 34.9307H15.6396L15.2091 36.2127H13.9917V41.1177H12.4932V36.2127H10.9827V34.9307ZM23.327 34.9307V36.2127H24.8376V41.1177H26.3384V36.2127H27.5558L27.9863 34.9307H23.327ZM16.6532 36.3868C16.7967 36.3868 16.9369 36.3443 17.0562 36.2646C17.1756 36.1848 17.2686 36.0715 17.3235 35.9389C17.3784 35.8064 17.3927 35.6605 17.3648 35.5197C17.3368 35.379 17.2677 35.2497 17.1662 35.1483C17.0647 35.0468 16.9354 34.9777 16.7947 34.9497C16.654 34.9217 16.5081 34.9361 16.3755 34.991C16.2429 35.0459 16.1296 35.1389 16.0499 35.2582C15.9702 35.3775 15.9276 35.5178 15.9276 35.6613C15.9273 35.7566 15.9458 35.8511 15.9822 35.9392C16.0185 36.0274 16.0719 36.1075 16.1393 36.1749C16.2067 36.2423 16.2867 36.2957 16.3749 36.3321C16.463 36.3685 16.5574 36.3871 16.6528 36.3868H16.6532ZM15.9272 41.1138H17.3983V36.8987H15.9272V41.1138ZM22.6856 36.3532H20.9661L19.4853 37.834V34.9307H18.0244L18.0193 41.1075H19.4954V39.4976L19.9525 39.0789L21.3836 41.1064H22.9576L20.8835 38.1447L22.6856 36.3532ZM36.7891 38.1533L38.5892 36.3532H36.8697L35.3889 37.834V34.9307H33.9268L33.917 41.1138H35.3932V39.5038L35.8553 39.0863L37.2864 41.1138H38.862L36.7891 38.1533ZM33.0072 38.6104C33.0141 39.119 32.8696 39.6182 32.592 40.0445C32.3145 40.4708 31.9164 40.8049 31.4485 41.0043C30.9805 41.2038 30.4639 41.2596 29.9641 41.1646C29.4644 41.0696 29.0042 40.8282 28.6421 40.4709C28.2799 40.1137 28.0322 39.6569 27.9304 39.1585C27.8286 38.6601 27.8773 38.1427 28.0704 37.6721C28.2634 37.2015 28.592 36.7989 29.0145 36.5155C29.4369 36.2322 29.9341 36.0809 30.4427 36.0808C31.1181 36.0761 31.7677 36.3398 32.2487 36.814C32.7296 37.2881 33.0026 37.9339 33.0076 38.6092L33.0072 38.6104ZM31.7001 38.6104C31.7001 38.3617 31.6264 38.1186 31.4882 37.9119C31.35 37.7051 31.1537 37.5439 30.9239 37.4488C30.6942 37.3536 30.4413 37.3287 30.1974 37.3772C29.9535 37.4257 29.7295 37.5455 29.5536 37.7213C29.3778 37.8972 29.258 38.1212 29.2095 38.3651C29.161 38.609 29.1859 38.8618 29.2811 39.0916C29.3762 39.3213 29.5374 39.5177 29.7442 39.6559C29.9509 39.794 30.194 39.8678 30.4427 39.8678C30.6081 39.8681 30.7718 39.8357 30.9246 39.7726C31.0774 39.7095 31.2162 39.6168 31.3331 39.4998C31.4499 39.3829 31.5426 39.244 31.6056 39.0912C31.6687 38.9383 31.7009 38.7746 31.7005 38.6092L31.7001 38.6104Z" fill="white"/>
</g>
</g>
<defs>
<clipPath id="clip0_1334_36706">
<rect width="49" height="49" fill="white"/>
</clipPath>
</defs>
</svg>
