<svg width="30" height="30" viewBox="0 0 30 30" fill="none" xmlns="http://www.w3.org/2000/svg">
<path d="M5.37074 26.1741C5.25285 26.1191 5.1677 26.0572 5.30525 25.9334C5.39039 25.8647 5.48209 25.8028 5.57378 25.7409C6.43179 25.1565 7.2374 24.517 7.76792 23.575C8.2133 22.7911 8.14125 22.3304 7.58453 21.7528C4.47999 18.4936 3.11766 14.5949 3.79882 9.98802C4.18525 7.38889 5.31834 5.14045 6.96886 3.18766C7.96441 2.00499 9.1499 1.04923 10.4467 0.251617C10.5253 0.203485 10.6367 0.189733 10.6498 0.0659653C10.6236 -0.00279459 10.5777 0.0178334 10.5384 0.0178334C8.33119 0.0178334 6.12395 -0.0302986 3.92327 0.0315854C1.81427 0.100345 -0.00653205 1.81247 1.76155e-05 4.2672C0.0131169 11.4389 1.76155e-05 18.6105 1.76155e-05 25.789C1.76155e-05 28.0169 1.61778 29.8803 3.73333 29.9628C5.52138 30.0384 7.30944 29.9765 9.10405 29.9696C9.23504 29.9765 9.36604 29.9834 9.49703 29.9834H18.9547C21.3126 29.9834 23.6705 29.9972 26.0284 29.9834C28.216 29.9834 29.9909 28.1269 29.9909 25.8372V25.7959V21.7735C29.9909 21.6772 30.0237 21.5741 29.9647 21.4709C29.8468 21.4778 29.801 21.5809 29.7355 21.6497C28.4649 22.9905 26.965 24.07 25.321 24.8333C21.293 26.6967 17.1929 26.8273 13.0338 25.3284C12.6736 25.1908 12.2806 25.1771 11.9073 25.2733C11.3571 25.4177 10.8135 25.5896 10.2699 25.7615C8.67177 26.2841 7.04091 26.5179 5.37074 26.1741ZM10.1192 14.5881C10.2306 14.4368 10.2895 14.3474 10.355 14.258C11.213 13.1166 12.071 11.9752 12.9291 10.8269C13.1779 10.4968 13.4268 10.1599 13.584 9.76111C13.7674 9.3073 13.5709 8.88098 13.1255 8.71596C12.9291 8.65408 12.7195 8.62657 12.5099 8.64033C11.344 8.63345 10.1716 8.63345 9.00581 8.64033C8.84206 8.64033 8.67832 8.66095 8.52113 8.70221C8.15435 8.79847 7.93166 9.1904 8.02336 9.58234C8.08885 9.84362 8.28534 10.0499 8.53423 10.1118C8.69142 10.153 8.85516 10.1737 9.0189 10.1668C9.72627 10.1737 10.4402 10.1668 11.1475 10.1737C11.2261 10.1737 11.3244 10.1187 11.3833 10.2424C11.3244 10.3249 11.2654 10.4075 11.2065 10.4831C10.1913 11.8308 9.18265 13.1854 8.16745 14.533C7.91856 14.87 7.78757 15.2413 7.97096 15.6538C8.15435 16.0664 8.52768 16.142 8.90756 16.1695C9.20885 16.1902 9.51668 16.1764 9.82451 16.1764C10.8856 16.1764 11.9401 16.1833 13.0011 16.1695C13.5644 16.1627 13.8657 15.8051 13.8067 15.255C13.7609 14.8218 13.4792 14.5949 12.9553 14.5881C12.0317 14.5812 11.1082 14.5881 10.1192 14.5881ZM17.7169 10.9713C16.8982 10.2218 15.9943 10.1737 15.1101 10.7237C14.0359 11.3838 13.643 12.4634 13.774 13.7148C13.8984 14.8837 14.3831 15.8395 15.5489 16.2314C16.2759 16.479 16.9505 16.3896 17.5466 15.8807C17.7038 15.7501 17.7496 15.7776 17.861 15.922C18.0771 16.2108 18.4504 16.3208 18.7779 16.1902C19.1054 16.087 19.3215 15.7707 19.3215 15.4132C19.3281 14.038 19.3346 12.6628 19.3215 11.2876C19.315 10.7375 18.8238 10.3868 18.3129 10.4968C18.0312 10.5587 17.8741 10.7581 17.7169 10.9713ZM22.2558 13.5223C22.2296 15.2413 23.5854 16.5408 25.2883 16.3621C26.8536 16.197 27.8688 14.9662 27.8164 13.2266C27.764 11.5076 26.5458 10.3318 24.8756 10.3868C23.3103 10.435 22.2034 11.7551 22.2558 13.5223ZM21.6794 12.154C21.6794 11.0744 21.686 10.0018 21.6794 8.92224C21.6794 8.37216 21.3454 8.02836 20.8476 8.03524C20.3629 8.04211 20.042 8.38591 20.0354 8.91536C20.0289 9.23854 20.0354 9.55483 20.0354 9.878V15.3444C20.0354 15.7707 20.2843 16.142 20.6118 16.2314C21.0637 16.3621 21.5288 16.0801 21.6467 15.6057C21.6663 15.5232 21.6794 15.4407 21.6729 15.3513C21.686 14.2855 21.6794 13.2197 21.6794 12.154Z" fill="#FDFEFE"/>
<rect x="7" y="7" width="21" height="9" fill="#346448"/>
<path d="M10.2351 14.6867C11.2274 14.6867 12.1606 14.6798 13.0872 14.6867C13.6063 14.6937 13.8889 14.9238 13.9415 15.3632C14.0006 15.9141 13.6983 16.2837 13.1332 16.2907C12.0686 16.3046 11.0106 16.2977 9.94597 16.2977C9.63711 16.2977 9.33481 16.3116 9.02595 16.2907C8.6448 16.2698 8.27022 16.1861 8.08622 15.7677C7.90221 15.3492 8.03365 14.9727 8.28336 14.6309C9.29539 13.2641 10.314 11.8903 11.3326 10.5235C11.3917 10.4398 11.4509 10.3561 11.51 10.2794C11.4443 10.1608 11.3523 10.2166 11.2734 10.2096C10.5637 10.2027 9.8474 10.2096 9.13767 10.2027C8.97338 10.2027 8.80909 10.1817 8.65137 10.1469C8.27679 10.0562 8.04679 9.65872 8.13222 9.26819C8.19136 9.00319 8.38851 8.78701 8.63823 8.72424C8.79595 8.6824 8.96024 8.66148 9.12452 8.66148C10.2943 8.65451 11.4706 8.65451 12.6403 8.66148C12.8506 8.65451 13.0543 8.6824 13.258 8.73819C13.7049 8.89859 13.8955 9.33793 13.718 9.79819C13.5603 10.1957 13.3106 10.5374 13.0609 10.8791C12.2 12.0437 11.3391 13.2013 10.4783 14.352C10.406 14.4427 10.3403 14.5333 10.2351 14.6867Z" fill="white"/>
<path d="M17.8581 11.0187C18.0159 10.8026 18.1801 10.6003 18.4496 10.5445C18.9687 10.433 19.455 10.7886 19.4616 11.3465C19.4813 12.7412 19.4747 14.136 19.4616 15.5307C19.4616 15.8933 19.2382 16.2141 18.9162 16.3187C18.5876 16.4512 18.213 16.3466 17.9961 16.0468C17.8844 15.9003 17.8384 15.8724 17.6807 16.0049C17.0827 16.521 16.4058 16.6116 15.6764 16.3606C14.5066 15.9561 14.0269 14.9868 13.8955 13.8082C13.7575 12.532 14.1583 11.4441 15.2361 10.7747C16.1298 10.2098 17.0367 10.2586 17.8581 11.0187ZM15.5318 13.5641C15.5449 13.871 15.6369 14.1639 15.8078 14.4079C16.1627 14.91 16.8395 15.0147 17.3193 14.6381C17.3981 14.5753 17.4704 14.4986 17.5361 14.4079C17.9041 13.8779 17.9041 13.0062 17.5361 12.4762C17.3521 12.2043 17.063 12.0439 16.7541 12.0369C16.0312 11.9881 15.5252 12.5808 15.5318 13.5641ZM22.4122 13.606C22.3597 11.8137 23.4703 10.4748 25.0474 10.426C26.7232 10.3702 27.9455 11.5627 27.9981 13.3061C28.0506 15.0704 27.032 16.3187 25.4614 16.4861C23.7463 16.6674 22.3859 15.3494 22.4122 13.606ZM24.0617 13.4386C24.0486 13.7873 24.1471 14.129 24.3443 14.4149C24.7057 14.917 25.3826 15.0147 25.8557 14.6241C25.928 14.5683 25.9872 14.4986 26.0463 14.4289C26.4275 13.8989 26.4275 13.0062 26.0529 12.4762C25.8689 12.2112 25.5797 12.0439 25.2709 12.0369C24.5611 11.9951 24.0617 12.5669 24.0617 13.4386ZM21.8339 12.2182C21.8339 13.2991 21.8405 14.38 21.8339 15.461C21.8405 15.9561 21.4725 16.3675 21.0059 16.3815C20.9271 16.3815 20.8416 16.3745 20.7628 16.3536C20.4342 16.2629 20.1845 15.8933 20.1845 15.454V9.90992C20.1845 9.58216 20.1779 9.26137 20.1845 8.93361C20.191 8.39664 20.513 8.04795 20.9993 8.04795C21.4988 8.04098 21.8339 8.38966 21.8339 8.94756C21.8405 10.0355 21.8339 11.1303 21.8339 12.2182Z" fill="white"/>
</svg>
