<svg width="23" height="23" viewBox="0 0 23 23" fill="none" xmlns="http://www.w3.org/2000/svg">
<path d="M16.6175 5.23258C16.3901 5.23258 16.1677 5.30003 15.9786 5.42639C15.7895 5.55276 15.6421 5.73236 15.555 5.9425C15.468 6.15263 15.4452 6.38386 15.4896 6.60694C15.534 6.83001 15.6435 7.03492 15.8043 7.19575C15.9652 7.35658 16.1701 7.46611 16.3931 7.51048C16.6162 7.55486 16.8475 7.53208 17.0576 7.44504C17.2677 7.358 17.4473 7.2106 17.5737 7.02149C17.7001 6.83237 17.7675 6.61003 17.7675 6.38258C17.7675 6.07758 17.6463 5.78508 17.4307 5.56941C17.215 5.35374 16.9225 5.23258 16.6175 5.23258ZM21.0258 7.55175C21.0072 6.75662 20.8583 5.96993 20.585 5.223C20.3413 4.58392 19.9621 4.00522 19.4733 3.52675C18.9988 3.03553 18.4187 2.65867 17.7771 2.42466C17.0321 2.14307 16.2446 1.99074 15.4483 1.97425C14.4325 1.91675 14.1067 1.91675 11.5 1.91675C8.89333 1.91675 8.5675 1.91675 7.55167 1.97425C6.75544 1.99074 5.96787 2.14307 5.22292 2.42466C4.58244 2.66104 4.0029 3.03758 3.52667 3.52675C3.03545 4.00129 2.65859 4.58134 2.42458 5.223C2.14299 5.96795 1.99066 6.75552 1.97417 7.55175C1.91667 8.56758 1.91667 8.89341 1.91667 11.5001C1.91667 14.1067 1.91667 14.4326 1.97417 15.4484C1.99066 16.2446 2.14299 17.0322 2.42458 17.7772C2.65859 18.4188 3.03545 18.9989 3.52667 19.4734C4.0029 19.9626 4.58244 20.3391 5.22292 20.5755C5.96787 20.8571 6.75544 21.0094 7.55167 21.0259C8.5675 21.0834 8.89333 21.0834 11.5 21.0834C14.1067 21.0834 14.4325 21.0834 15.4483 21.0259C16.2446 21.0094 17.0321 20.8571 17.7771 20.5755C18.4187 20.3415 18.9988 19.9646 19.4733 19.4734C19.9642 18.9967 20.3438 18.4175 20.585 17.7772C20.8583 17.0302 21.0072 16.2435 21.0258 15.4484C21.0258 14.4326 21.0833 14.1067 21.0833 11.5001C21.0833 8.89341 21.0833 8.56758 21.0258 7.55175ZM19.3008 15.3334C19.2939 15.9417 19.1837 16.5445 18.975 17.1159C18.822 17.533 18.5762 17.9098 18.2563 18.218C17.9454 18.5347 17.5693 18.78 17.1542 18.9367C16.5827 19.1454 15.98 19.2556 15.3717 19.2626C14.4133 19.3105 14.0588 19.3201 11.5383 19.3201C9.01792 19.3201 8.66333 19.3201 7.705 19.2626C7.07335 19.2744 6.4444 19.1771 5.84583 18.9751C5.44888 18.8103 5.09005 18.5657 4.79167 18.2563C4.47359 17.9485 4.23089 17.5713 4.0825 17.1542C3.84853 16.5746 3.71876 15.9582 3.69917 15.3334C3.69917 14.3751 3.64167 14.0205 3.64167 11.5001C3.64167 8.97966 3.64167 8.62508 3.69917 7.66675C3.70346 7.04484 3.817 6.42853 4.03458 5.84591C4.2033 5.44141 4.46226 5.08084 4.79167 4.79175C5.08282 4.46224 5.44265 4.20055 5.84583 4.02508C6.42999 3.81429 7.04567 3.70412 7.66667 3.69925C8.625 3.69925 8.97958 3.64175 11.5 3.64175C14.0204 3.64175 14.375 3.64175 15.3333 3.69925C15.9417 3.70623 16.5444 3.8164 17.1158 4.02508C17.5513 4.18671 17.9422 4.44948 18.2563 4.79175C18.5703 5.08613 18.8157 5.44603 18.975 5.84591C19.188 6.42948 19.2982 7.04554 19.3008 7.66675C19.3488 8.62508 19.3583 8.97966 19.3583 11.5001C19.3583 14.0205 19.3488 14.3751 19.3008 15.3334ZM11.5 6.58383C10.5281 6.58573 9.57851 6.87567 8.7713 7.41702C7.96408 7.95838 7.33545 8.72685 6.96482 9.62535C6.59419 10.5238 6.49819 11.512 6.68897 12.4651C6.87975 13.4181 7.34873 14.2932 8.03666 14.9798C8.72459 15.6664 9.60059 16.1336 10.554 16.3226C11.5074 16.5115 12.4954 16.4136 13.3932 16.0412C14.2909 15.6688 15.0582 15.0387 15.598 14.2304C16.1377 13.4221 16.4258 12.472 16.4258 11.5001C16.4271 10.8533 16.3005 10.2127 16.0533 9.615C15.8061 9.01733 15.4431 8.47444 14.9853 8.01755C14.5275 7.56065 13.984 7.19877 13.3858 6.95272C12.7877 6.70667 12.1468 6.5813 11.5 6.58383ZM11.5 14.6913C10.8688 14.6913 10.2518 14.5042 9.72704 14.1535C9.20224 13.8028 8.79321 13.3044 8.55167 12.7213C8.31013 12.1382 8.24693 11.4965 8.37007 10.8775C8.49321 10.2585 8.79714 9.68983 9.24345 9.24353C9.68975 8.79722 10.2584 8.49329 10.8774 8.37015C11.4965 8.24702 12.1381 8.31021 12.7212 8.55175C13.3044 8.79329 13.8028 9.20232 14.1534 9.72712C14.5041 10.2519 14.6913 10.8689 14.6913 11.5001C14.6913 11.9192 14.6087 12.3341 14.4483 12.7213C14.288 13.1085 14.0529 13.4603 13.7566 13.7566C13.4602 14.053 13.1084 14.288 12.7212 14.4484C12.3341 14.6088 11.9191 14.6913 11.5 14.6913Z" fill="#346448"/>
</svg>
