<svg width="20" height="20" viewBox="0 0 20 20" fill="none" xmlns="http://www.w3.org/2000/svg">
<g clip-path="url(#clip0_1587_18490)">
<path d="M19.9895 10.1871C19.9895 9.3677 19.9214 8.76976 19.7742 8.14969H10.1992V11.848H15.8195C15.7062 12.7671 15.0943 14.1512 13.7346 15.0813L13.7155 15.2051L16.7429 17.4969L16.9527 17.5174C18.8789 15.7789 19.9895 13.221 19.9895 10.1871" fill="#4285F4"/>
<path d="M10.1992 19.9314C12.9526 19.9314 15.2642 19.0455 16.9526 17.5174L13.7345 15.0813C12.8734 15.6682 11.7175 16.0779 10.1992 16.0779C7.50235 16.0779 5.21345 14.3395 4.39752 11.9366L4.27792 11.9466L1.12997 14.3273L1.08881 14.4391C2.76582 17.6946 6.21053 19.9314 10.1992 19.9314Z" fill="#34A853"/>
<path d="M4.39754 11.9366C4.18225 11.3166 4.05765 10.6521 4.05765 9.96565C4.05765 9.27908 4.18225 8.61473 4.38621 7.99466L4.38051 7.8626L1.1931 5.44366L1.08882 5.49214C0.397637 6.84305 0.0010376 8.36008 0.0010376 9.96565C0.0010376 11.5712 0.397637 13.0882 1.08882 14.4391L4.39754 11.9366" fill="#FBBC05"/>
<path d="M10.1992 3.85335C12.1142 3.85335 13.4059 4.66167 14.1425 5.33716L17.0206 2.59106C15.253 0.985494 12.9527 0 10.1992 0C6.21055 0 2.76582 2.23671 1.08881 5.49212L4.38621 7.99464C5.21347 5.59182 7.50238 3.85335 10.1992 3.85335" fill="#EB4335"/>
</g>
<defs>
<clipPath id="clip0_1587_18490">
<rect width="20" height="20" fill="white"/>
</clipPath>
</defs>
</svg>
