<svg width="23" height="23" viewBox="0 0 23 23" fill="none" xmlns="http://www.w3.org/2000/svg">
<path d="M18.4 10.3882V7.66657C17.1254 7.66657 16.1527 7.32636 15.525 6.66511C14.8807 5.91044 14.5198 4.95475 14.5044 3.96261V3.76615L11.9312 3.70386V14.7582C11.843 15.2405 11.6089 15.6842 11.2605 16.0292C10.9121 16.3742 10.4663 16.6041 9.98311 16.6877C9.49997 16.7713 9.00281 16.7047 8.55875 16.4968C8.11468 16.2889 7.74509 15.9497 7.49987 15.5252C7.25465 15.1006 7.1456 14.6109 7.18746 14.1224C7.22932 13.6339 7.42006 13.17 7.73393 12.7933C8.04781 12.4166 8.4697 12.1453 8.94266 12.0159C9.41562 11.8866 9.91687 11.9055 10.3787 12.0701V9.43469C10.1094 9.39057 9.83704 9.36813 9.56416 9.36761C8.58234 9.36761 7.62257 9.65875 6.80622 10.2042C5.98986 10.7497 5.35359 11.525 4.97787 12.4321C4.60214 13.3392 4.50383 14.3373 4.69538 15.3002C4.88692 16.2632 5.35971 17.1477 6.05396 17.842C6.74821 18.5362 7.63274 19.009 8.5957 19.2006C9.55865 19.3921 10.5568 19.2938 11.4639 18.9181C12.3709 18.5423 13.1462 17.9061 13.6917 17.0897C14.2372 16.2734 14.5283 15.3136 14.5283 14.3318C14.5278 14.1283 14.515 13.9251 14.49 13.7232V9.33886C15.66 10.0696 17.0213 10.4349 18.4 10.3882Z" fill="#346448"/>
</svg>
