<svg width="23" height="23" viewBox="0 0 23 23" fill="none" xmlns="http://www.w3.org/2000/svg">
<path d="M22.0417 9.30534C22.0891 7.93363 21.7891 6.57219 21.1696 5.34742C20.7493 4.84487 20.1659 4.50573 19.5212 4.38909C16.8547 4.14714 14.1771 4.04797 11.5 4.09201C8.83262 4.04597 6.16468 4.14194 3.5075 4.37951C2.98216 4.47507 2.49599 4.72148 2.10833 5.08867C1.24583 5.88409 1.15 7.24492 1.05416 8.39492C0.915122 10.4626 0.915122 12.5373 1.05416 14.6049C1.08189 15.2522 1.17826 15.8947 1.34166 16.5216C1.45722 17.0056 1.691 17.4534 2.02208 17.8249C2.41238 18.2116 2.90987 18.472 3.45 18.5724C5.51608 18.8275 7.59787 18.9331 9.67916 18.8887C13.0333 18.9366 15.9754 18.8887 19.4542 18.6203C20.0076 18.5261 20.5191 18.2653 20.9204 17.8728C21.1887 17.6044 21.3891 17.2759 21.505 16.9145C21.8477 15.8628 22.0161 14.7622 22.0033 13.6562C22.0417 13.1195 22.0417 9.88034 22.0417 9.30534ZM9.33416 14.2312V8.29909L15.0075 11.2795C13.4167 12.1612 11.3179 13.1578 9.33416 14.2312Z" fill="#346448"/>
</svg>
