<svg width="46" height="46" viewBox="0 0 46 46" fill="none" xmlns="http://www.w3.org/2000/svg">
<circle cx="23" cy="23" r="23" fill="#EBF0ED"/>
<path d="M29 19C29 17.4087 28.3679 15.8826 27.2426 14.7574C26.1174 13.6321 24.5913 13 23 13C21.4087 13 19.8826 13.6321 18.7574 14.7574C17.6321 15.8826 17 17.4087 17 19C17 26 14 28 14 28H32C32 28 29 26 29 19Z" stroke="#1C432C" stroke-width="2" stroke-linecap="round" stroke-linejoin="round"/>
<path d="M24.73 32C24.5542 32.3031 24.3019 32.5547 23.9982 32.7295C23.6946 32.9044 23.3504 32.9965 23 32.9965C22.6496 32.9965 22.3054 32.9044 22.0018 32.7295C21.6982 32.5547 21.4458 32.3031 21.27 32" stroke="#1C432C" stroke-width="2" stroke-linecap="round" stroke-linejoin="round"/>
</svg>
