<svg width="46" height="46" viewBox="0 0 46 46" fill="none" xmlns="http://www.w3.org/2000/svg">
<circle cx="23" cy="23" r="23" fill="#346448"/>
<path d="M32 27V19C31.9996 18.6493 31.9071 18.3048 31.7315 18.0012C31.556 17.6975 31.3037 17.4454 31 17.27L24 13.27C23.696 13.0945 23.3511 13.0021 23 13.0021C22.6489 13.0021 22.304 13.0945 22 13.27L15 17.27C14.6963 17.4454 14.444 17.6975 14.2685 18.0012C14.0929 18.3048 14.0004 18.6493 14 19V27C14.0004 27.3508 14.0929 27.6952 14.2685 27.9989C14.444 28.3025 14.6963 28.5547 15 28.73L22 32.73C22.304 32.9056 22.6489 32.998 23 32.998C23.3511 32.998 23.696 32.9056 24 32.73L31 28.73C31.3037 28.5547 31.556 28.3025 31.7315 27.9989C31.9071 27.6952 31.9996 27.3508 32 27Z" stroke="white" stroke-width="2" stroke-linecap="round" stroke-linejoin="round"/>
<path d="M14.27 17.96L23 23.01L31.73 17.96" stroke="white" stroke-width="2" stroke-linecap="round" stroke-linejoin="round"/>
<path d="M23 33.08V23" stroke="white" stroke-width="2" stroke-linecap="round" stroke-linejoin="round"/>
</svg>
